<?xml version="1.0" standalone="no"?>
<!DOCTYPE svg PUBLIC "-//W3C//DTD SVG 1.1//EN" "http://www.w3.org/Graphics/SVG/1.1/DTD/svg11.dtd" >
<svg xmlns="http://www.w3.org/2000/svg" xmlns:xlink="http://www.w3.org/1999/xlink" version="1.1">
<metadata>
Created by FontForge 20200427 at Sun Apr 16 19:28:15 2006
 By www
(c) Copyright SoftMaker Software GmbH and its licensors
</metadata>
<defs>
<font id="Micr" horiz-adv-x="786" >
  <font-face 
    font-family="Micr"
    font-weight="400"
    font-stretch="normal"
    units-per-em="1000"
    panose-1="0 0 4 0 0 0 0 0 0 0"
    ascent="800"
    descent="-200"
    x-height="560"
    cap-height="700"
    bbox="-49 -221 935 894"
    underline-thickness="40"
    underline-position="-170"
    unicode-range="U+0020-2122"
  />
<missing-glyph horiz-adv-x="500" 
d="M31 0v894h438v-894h-438zM438 31v832h-376v-832h376z" />
    <glyph glyph-name=".notdef" horiz-adv-x="500" 
d="M31 0v894h438v-894h-438zM438 31v832h-376v-832h376z" />
    <glyph glyph-name="NULL" horiz-adv-x="0" 
 />
    <glyph glyph-name="nonmarkingreturn" horiz-adv-x="258" 
 />
    <glyph glyph-name="space" unicode=" " horiz-adv-x="258" 
 />
    <glyph glyph-name="exclam" unicode="!" horiz-adv-x="319" 
d="M200 199h-85q-50 0 -50 50l1 405q0 17 15.5 31.5t32.5 14.5q52 0 52 -95l-3 -53l-2 -38l36 1q53 0 53 -39v-227q0 -29 -10.5 -39.5t-39.5 -10.5zM200 -1l-83 1q-52 0 -52 50l1 37q0 27 12.5 38.5t39.5 11.5h82q29 0 39 -11q11 -9 11 -39v-38q0 -29 -10.5 -39.5
t-39.5 -10.5z" />
    <glyph glyph-name="quotedbl" unicode="&#x22;" horiz-adv-x="265" 
d="M113 662v-100q0 -41 -24 -44l-21 -1q-27 0 -27 76l1 35v34q0 40 26 40h21q24 0 24 -40zM221 658v-93q0 -47 -25 -47h-21q-27 0 -27 75l1 35v34q0 40 26 40h22q24 0 24 -44z" />
    <glyph glyph-name="numbersign" unicode="#" horiz-adv-x="636" 
d="M529 392q0 -50 -74 -50l-26 1l-22 1l-22 -67q-16 -35 -53 -41q-27 11 -30 14q-15 11 -15 29q0 9 22 65h-88l-21 -68q-17 -41 -51 -41q-14 0 -31 12q-14 12 -14 29q0 15 19 68q-38 0 -55 6q-28 9 -28 43q0 46 72 46l26 -1l20 -1l34 92q-42 0 -56 5q-30 9 -30 43
q0 46 72 46l26 -1l21 -1l21 52q16 25 45 25q16 0 29 -13t13 -30q0 -19 -10 -33h87q15 40 23 50q19 25 47 25q38 0 38 -38q0 -19 -9 -37h16q72 0 72 -46q0 -49 -74 -49l-26 1l-22 1l-36 -92l16 1q74 0 74 -46zM289 529l-34 -92h87l36 92h-89z" />
    <glyph glyph-name="dollar" unicode="$" horiz-adv-x="465" 
d="M229 -21q-30 0 -42 22q-3 6 -5.5 20.5t-2.5 29.5l-33 -2l-33 -2q-69 0 -69 46v145q0 14 12 26q11 9 28 11q44 0 44 -70l-2 -39l-2 -31h141v209h-179q-29 0 -38 15l-4 28l-1 216q0 49 63 49l40 -3l34 -3q0 35 7 50q11 22 41 22q47 0 47 -71l36 2l36 2q76 0 76 -48l1 -81
q0 -15 -13 -28q-11 -9 -28 -11q-28 0 -37 26q-4 16 -4 51h-218v-140h257q41 0 41 -43v-300q-1 -1 -1 -2q-3 -10 -6 -19q-4 -1 -18.5 -3.5t-28.5 -2.5h-47l-47 1q0 -72 -45 -72z" />
    <glyph glyph-name="percent" unicode="%" horiz-adv-x="564" 
d="M230 451h-150q-40 0 -40 41v166q0 42 40 42h151q43 0 43 -35v-174q0 -40 -44 -40zM115 623v-90h82v90h-82zM474 -1h-151q-36 0 -40 35l1 4v166q0 42 40 42l150 1q44 0 44 -41v-170q0 -16 -13.5 -26.5t-30.5 -10.5zM359 164v-88h82v88h-82zM486 697q11 0 21 -8.5t11 -22.5
q0 -34 -174 -303l-209 -316q-31 -49 -62 -49q-10 0 -20 6.5t-11 17.5q0 29 187 319l205 315q24 41 52 41z" />
    <glyph glyph-name="ampersand" unicode="&#x26;" horiz-adv-x="648" 
d="M499 -1h-410q-51 0 -51 51l1 333q0 52 54 52h19l20 -1v214q0 52 49 52h382q17 0 32 -16q13 -16 13 -35q0 -18 -13 -31.5t-32 -13.5h-340v-170h233q0 68 47 68q49 0 49 -68q56 0 56 -48q0 -47 -56 -47v-295q0 -45 -53 -45zM223 339v-246h233v246h-233z" />
    <glyph glyph-name="quotesingle" unicode="'" horiz-adv-x="268" 
d="M42 612v38q0 28 11 39t39 11h83q27 0 38 -11q11 -9 11 -39l1 -136q0 -17 -13 -30.5t-29 -13.5q-37 0 -47 31q-2 8 -3 20.5t-1 40.5h-19l-19 -1q-52 0 -52 51z" />
    <glyph glyph-name="parenleft" unicode="(" horiz-adv-x="310" 
d="M173 93h30q72 0 72 -47t-58 -47l-78 1q-32 0 -45 9t-13 41v598q0 27 10.5 39.5t37.5 12.5h102q18 0 31 -16t13 -34q0 -35 -37 -44l-65 -2v-511z" />
    <glyph glyph-name="parenright" unicode=")" horiz-adv-x="307" 
d="M38 649q0 19 13 35t33 16h100q49 0 49 -52v-598q0 -33 -12.5 -42t-44.5 -9h-71q-67 0 -67 48q0 34 37 44q9 1 19.5 1.5t23.5 0.5h23v511l-38 -1q-30 0 -45 8q-20 11 -20 38z" />
    <glyph glyph-name="asterisk" unicode="*" horiz-adv-x="302" 
d="M216 672l29 -30l-73 -54l90 12v-35l-91 8l69 -58l-27 -27l-53 72l8 -89h-38l15 89l-58 -72l-24 25l72 60l-95 -13v40l95 -12l-75 60l27 24l60 -73l-17 92h41l-11 -93z" />
    <glyph glyph-name="plus" unicode="+" horiz-adv-x="401" 
d="M355 295q0 -34 -66 -34l-31 2l-32 2l2 -33l3 -32q0 -63 -35 -63q-33 0 -33 65l2 32l2 31l-31 -2l-32 -2q-62 0 -62 34q0 31 62 31l37 -2l26 -2l-2 30l-2 31q0 67 34 67t34 -64l-2 -37l-2 -26l31 2l29 3q68 0 68 -33z" />
    <glyph glyph-name="comma" unicode="," horiz-adv-x="270" 
d="M42 50l-1 37q0 29 10.5 39.5t40.5 10.5h82q30 0 40 -10.5t10 -39.5v-137q0 -16 -13 -29t-30 -13q-36 0 -47 30q-2 7 -3 20t-1 41l-19 -1h-19q-28 0 -39 11q-8 11 -11 41z" />
    <glyph glyph-name="hyphen" unicode="-" horiz-adv-x="347" 
d="M303 297q0 -19 -14 -34t-33 -15h-169q-19 0 -33 15t-14 34q0 17 15 32q16 13 34 13h165q19 0 34 -14q15 -12 15 -31z" />
    <glyph glyph-name="period" unicode="." horiz-adv-x="273" 
d="M174 -1h-82q-27 0 -39 9q-8 8 -11 39l-1 43q0 26 10.5 36.5t40.5 10.5h82q30 0 40 -10.5t10 -39.5v-38q0 -28 -11 -39q-9 -11 -39 -11z" />
    <glyph glyph-name="slash" unicode="/" horiz-adv-x="554" 
d="M481 697q12 0 22 -9t11 -23q0 -33 -175 -302l-209 -316q-32 -50 -62 -50q-9 0 -21 6q-9 6 -10 17q0 30 186 321l206 315q26 41 52 41z" />
    <glyph glyph-name="zero" unicode="0" 
d="M610 -1h-195q-80 0 -129.5 41.5t-49.5 121.5v407q0 81 49 123q23 20 54 30t74 10h198q81 0 128.5 -41.5t47.5 -121.5l-1 -407q0 -78 -47.5 -120.5t-128.5 -42.5zM615 654h-207q-47 0 -70 -18q-20 -18 -20 -67v-405q0 -47 21.5 -66.5t69.5 -19.5h204q94 0 94 84l1 408
q0 46 -22 65t-71 19z" />
    <glyph glyph-name="one" unicode="1" 
d="M733 -1h-215q-30 0 -40 11.5t-10 40.5v242q0 34 37 34q38 0 38 29v229q0 23 -10 29l-30 2q-35 0 -35 66q0 30 10.5 41t41.5 11h50q64 0 64 -101q0 -31 -9 -106q-4 -38 -6 -62.5t-2 -43.5q0 -69 28 -90q8 2 13 2q6 -1 9 -1q63 0 79 -5q41 -12 41 -54v-221q0 -53 -54 -53z
" />
    <glyph glyph-name="two" unicode="2" 
d="M545 273v-144q0 -55 75 -55l53 3l52 3q61 0 61 -41q0 -40 -65 -40h-190q-36 0 -50 7q-17 11 -17 46v299q0 57 77 57l53 -4l46 -4q69 0 69 55v148q0 57 -84 57h-30q-16 -3 -25 -4l-44 -3q-62 0 -62 40q0 19 15 30t33 11h223q52 0 52 -47v-310q0 -55 -67 -55l-53 3l-55 4
q-67 0 -67 -56z" />
    <glyph glyph-name="three" unicode="3" 
d="M802 326v-275q0 -27 -8.5 -39.5t-36.5 -12.5h-301q-51 0 -51 40q0 42 71 42h29q16 -3 24 -4l41 -3q75 0 75 55v145q0 57 -77 57l-54 -4l-52 -3q-58 0 -58 39q0 42 74 42l52 -3l41 -3q78 0 78 56v148q0 57 -84 57h-18t-36 -4l-44 -3q-63 0 -63 41q0 40 47 40h222
q27 0 40 -11.5t13 -40.5l1 -292q0 -31 37 -31q38 0 38 -33z" />
    <glyph glyph-name="four" unicode="4" 
d="M526 246l81 1q32 0 32 39q0 40 33 40h74q26 0 38 -12q10 -13 10 -41l-1 -225q0 -27 -11 -38t-40 -11l-52 1q-54 0 -54 53l2 29l2 29q0 60 -127 60h-27t-55 -4l-63 -4q-29 0 -41 11q-11 13 -11 41v467q0 30 10.5 41t41.5 11h52q65 0 65 -109q0 -39 -11.5 -137.5
t-11.5 -134.5q0 -107 64 -107z" />
    <glyph glyph-name="five" unicode="5" 
d="M442 734l301 1q17 0 30.5 -11.5t13.5 -29.5q0 -43 -73 -43q-11 0 -30 1t-47 4l-78 5q-91 0 -91 -58v-149q0 -57 79 -57q25 0 79 6l80 7q81 0 81 -59l-1 -299q0 -29 -11 -41t-40 -12h-301q-45 0 -45 41q0 43 75 43q11 0 30 -1t46 -4l79 -5q90 0 90 56l-1 144q0 58 -79 58
q-30 0 -80.5 -6.5t-77.5 -6.5q-82 0 -82 59v305q0 52 53 52z" />
    <glyph glyph-name="six" unicode="6" 
d="M386 195v-69q0 -27 12 -37t39 -10l219 1q29 0 40 8.5t11 40.5v66q0 51 -51 51h-219q-30 0 -40.5 -10.5t-10.5 -40.5zM388 603v-229q0 -56 89 -56q31 0 106 9t107 9q97 0 97 -63v-229q0 -45 -52 -45l-376 1q-54 0 -54 51v634q0 49 55 49l211 1q54 0 54 -53v-110
q0 -18 -11 -31.5t-29 -13.5q-26 0 -35 23q-3 9 -3 46q0 58 -48 58l-61 -1q-29 0 -39.5 -10.5t-10.5 -39.5z" />
    <glyph glyph-name="seven" unicode="7" 
d="M656 654h-137q-57 0 -57 -62l1 -32l2 -29q0 -48 -38 -48q-19 0 -30 14t-11 33v152q0 52 52 52l298 1q51 0 51 -53v-228q0 -41 -41 -60l-76 -30q-42 -21 -42 -66l4 -62l4 -98q0 -138 -46 -138q-18 0 -31 13q-11 14 -11 33v309q0 38 42 58l77 30q42 21 42 62v98
q0 51 -53 51z" />
    <glyph glyph-name="eight" unicode="8" 
d="M391 603v-148q0 -52 51 -52h140q52 0 52 52v148q0 28 -12.5 39.5t-40.5 11.5h-143q-28 0 -37.5 -11t-9.5 -40zM787 326v-274q0 -31 -11 -42t-41 -11h-447q-30 0 -41 11t-11 41v274q0 33 37 33q38 0 38 32v292q0 52 52 52l297 1q51 0 51 -53l1 -292q0 -31 37 -31
q38 0 38 -33zM393 273l-1 -144q0 -29 11 -40q13 -10 42 -10h136q27 0 38 10.5t11 39.5v145q0 30 -9.5 40.5t-40.5 10.5h-137q-31 0 -40.5 -9.5t-9.5 -42.5z" />
    <glyph glyph-name="nine" unicode="9" 
d="M395 603v-148q0 -31 11.5 -41.5t40.5 -10.5h210q52 0 52 52v148q0 28 -12.5 39.5t-40.5 11.5h-208q-31 0 -42 -11q-11 -9 -11 -40zM316 377v305q0 29 11.5 40.5t40.5 11.5l368 1q51 0 51 -53v-633q0 -28 -12 -40q-12 -10 -40 -10h-52q-55 0 -55 90l3 58l3 48
q0 84 -19.5 112t-70.5 28q-7 0 -26 -1t-49 -4l-101 -5q-29 0 -41 11q-11 13 -11 41z" />
    <glyph glyph-name="colon" unicode=":" horiz-adv-x="271" 
d="M174 212l-82 1q-29 0 -40 10q-10 12 -10 40v38q0 32 12 40.5t38 8.5h82q29 0 38 -9.5t12 -40.5l1 -37q0 -28 -11 -39.5t-40 -11.5zM224 41q0 -42 -50 -42h-83q-38 0 -47 21q-4 8 -4 56q0 61 49 61h85q29 0 39 -11q11 -9 11 -39v-46z" />
    <glyph glyph-name="semicolon" unicode=";" horiz-adv-x="266" 
d="M174 212l-82 1q-29 0 -40 10q-10 12 -10 40v38q0 32 12 40.5t38 8.5h82q29 0 38 -9.5t12 -40.5l1 -37q0 -28 -11 -39.5t-40 -11.5zM42 50l-1 37q0 29 10.5 39.5t40.5 10.5h82q30 0 40 -10.5t10 -39.5v-137q0 -16 -13 -29t-30 -13q-36 0 -47 30q-2 7 -3 20t-1 41l-19 -1
h-19q-28 0 -39 11q-8 11 -11 41z" />
    <glyph glyph-name="less" unicode="&#x3c;" horiz-adv-x="479" 
d="M439 41q0 -18 -15.5 -30t-35.5 -12q-27 0 -172 106l-182 135l184 161q151 128 184 128q17 0 30.5 -12.5t13.5 -30.5q0 -29 -120 -127l-149 -114l146 -92q116 -78 116 -112z" />
    <glyph glyph-name="equal" unicode="=" horiz-adv-x="345" 
d="M303 367q0 -19 -14 -33t-33 -14l-168 -1q-20 0 -33.5 14.5t-13.5 33.5t14.5 32t33.5 13h165q18 0 33.5 -12.5t15.5 -32.5zM303 227q0 -19 -14 -33t-33 -14l-168 -1q-20 0 -33.5 14.5t-13.5 33.5t14.5 32t33.5 13h165q18 0 33.5 -12.5t15.5 -32.5z" />
    <glyph glyph-name="greater" unicode="&#x3e;" horiz-adv-x="492" 
d="M38 486q0 15 14 29q13 11 30 13q36 0 185 -127l184 -161l-182 -136q-146 -105 -176 -105q-14 0 -30 13.5t-18 28.5q0 31 118 112l145 92l-148 115q-122 98 -122 126z" />
    <glyph glyph-name="question" unicode="?" horiz-adv-x="528" 
d="M393 434v166h-256l1 -24q0 -35 -10.5 -51t-36.5 -16q-19 0 -33 13.5t-14 31.5v95q0 51 51 51h344q50 0 50 -52v-254q0 -30 -10 -40t-39 -10l-214 1l2 -39l3 -40q0 -67 -56 -67h-81q-29 0 -40 10q-10 12 -10 40v134q0 51 48 51h301zM175 -1h-81q-29 0 -39.5 11.5
t-10.5 39.5v37q0 30 10 40t39 10h83q29 0 39 -11q11 -9 11 -39v-38q0 -31 -11 -40.5t-40 -9.5z" />
    <glyph glyph-name="at" unicode="@" horiz-adv-x="624" 
d="M37 347q0 110 81 192t192 82q110 0 192 -81t82 -193q0 -111 -81.5 -192t-192.5 -81q-112 0 -192.5 81t-80.5 192zM545 348q0 95 -69.5 165.5t-165.5 70.5q-93 0 -162.5 -71t-69.5 -165q0 -97 68 -165.5t164 -68.5q95 0 165 70t70 164zM364 390v84h-127v-84h127zM261 165
h-53l-15 6q-9 24 -9 119l2 105l3 105l-2 2q3 25 26 25l175 1q29 0 29 -29l1 -307q0 -9 -6 -16.5t-18 -8.5q-28 0 -28 23v141h-82v-139q0 -27 -23 -27z" />
    <glyph glyph-name="A" unicode="A" horiz-adv-x="528" 
d="M174 -1h-79q-30 0 -41 10q-10 12 -10 41v597q0 53 48 53h342q30 0 40.5 -12t10.5 -42v-597q0 -18 -12 -34t-31 -16q-21 0 -36 12t-15 33v277h-165l1 -271q0 -28 -12.5 -39.5t-40.5 -11.5zM388 434v166h-251v-166h251z" />
    <glyph glyph-name="B" unicode="B" horiz-adv-x="617" 
d="M388 434v166h-251v-166h251zM475 339h-249v-246h249v246zM44 50v597q0 53 48 53h344q49 0 49 -50v-216h27q58 0 58 -51v-339q0 -45 -51 -45l-425 1q-28 0 -39 11t-11 39z" />
    <glyph glyph-name="C" unicode="C" horiz-adv-x="530" 
d="M226 93h167v27q0 65 48 65q19 0 33 -14q15 -12 15 -31v-96q0 -45 -52 -45h-346q-49 0 -49 51v597q0 53 50 53h343q54 0 54 -50v-95q0 -18 -15 -33q-16 -13 -34 -13q-33 0 -43 32q-4 13 -4 59h-256v-166l36 1q53 0 53 -52v-290z" />
    <glyph glyph-name="D" unicode="D" horiz-adv-x="528" 
d="M433 -1l-339 1q-28 0 -39 11t-11 39v597q0 53 48 53h344q49 0 49 -50v-606q0 -45 -52 -45zM137 600v-166l39 1q52 0 52 -52v-290h167v507h-258z" />
    <glyph glyph-name="E" unicode="E" horiz-adv-x="520" 
d="M132 434h293q18 0 32.5 -15.5t14.5 -33.5q0 -54 -114 -54h-44q-23 3 -35 4l-56 4v-247l48 4l78 4q123 0 123 -54q0 -19 -14 -33q-12 -14 -32 -14h-337q-30 0 -41 10q-10 12 -10 41v601q0 49 51 49h336q20 0 33 -16t13 -35q0 -18 -13 -31.5t-32 -13.5h-294v-170z" />
    <glyph glyph-name="F" unicode="F" horiz-adv-x="490" 
d="M172 -1h-81q-28 0 -40 11q-11 13 -11 40v598q0 52 49 52h339q18 0 30.5 -15.5t12.5 -34.5q0 -18 -12.5 -32t-30.5 -14h-294v-170h293q17 0 30.5 -15.5t13.5 -33.5q0 -54 -113 -54h-42q-23 3 -35 4l-58 4v-289q0 -30 -10.5 -40.5t-40.5 -10.5z" />
    <glyph glyph-name="G" unicode="G" horiz-adv-x="522" 
d="M305 297q0 18 12.5 32.5t31.5 14.5h79q49 0 49 -51v-248q0 -28 -13 -38q-13 -8 -43 -8l-329 1q-28 0 -39 11t-11 39v598q0 52 49 52h334q53 0 53 -50v-95q0 -18 -14 -32t-32 -14q-33 0 -43 32q-4 11 -4.5 29.5t-0.5 29.5h-249v-166h39q52 0 52 -51v-290h154v160h-16
q-59 0 -59 44z" />
    <glyph glyph-name="H" unicode="H" horiz-adv-x="532" 
d="M170 -1h-76q-31 0 -42 10q-10 12 -10 41l-1 605q0 18 14 32q16 13 34 13t32 -14q14 -12 14 -31v-221h254v221q0 18 14 32q16 13 34 13q19 0 33 -14q15 -12 15 -31v-607q0 -20 -12.5 -35.5t-33.5 -15.5q-18 0 -34 14t-16 34v297h-165v-292q0 -29 -12 -41q-13 -10 -42 -10z
" />
    <glyph glyph-name="I" unicode="I" horiz-adv-x="310" 
d="M193 -1l-85 1q-27 0 -38 10q-10 12 -10 40v604q0 18 14 32t33 14t34 -14q15 -12 15 -31v-221l41 1q46 0 46 -52v-336q0 -27 -11.5 -37.5t-38.5 -10.5z" />
    <glyph glyph-name="J" unicode="J" horiz-adv-x="528" 
d="M44 50l-1 175q0 18 15 32t33 14q53 0 53 -91l-3 -51l-2 -36h164v562q0 18 13 32q15 13 33 13q19 0 34 -14q15 -12 15 -31v-221l41 1q46 0 46 -52v-336q0 -27 -11.5 -37.5t-38.5 -10.5h-342q-29 0 -39 11t-10 40z" />
    <glyph glyph-name="K" unicode="K" horiz-adv-x="530" 
d="M489 383v-335q0 -18 -12.5 -33.5t-30.5 -15.5q-19 0 -35 12t-16 33v298h-165v-292q0 -29 -12 -41q-13 -10 -43 -10h-77q-30 0 -41 10q-10 12 -10 41l1 605q0 18 13 32q15 13 32 13q19 0 34 -14q15 -12 15 -31v-221h161v221q0 17 15.5 31.5t34.5 14.5q18 0 32 -14
q15 -12 15 -32v-221l42 1q27 0 37 -12t10 -40z" />
    <glyph glyph-name="L" unicode="L" horiz-adv-x="496" 
d="M44 50l-1 605q0 18 14 32q16 13 34 13t32 -14q14 -12 14 -31v-221l42 1q27 0 37 -12t10 -40v-290l221 -1q19 0 33 -14q15 -12 15 -32q0 -18 -16 -32.5t-34 -14.5l-351 1q-28 0 -39 11t-11 39z" />
    <glyph glyph-name="M" unicode="M" horiz-adv-x="698" 
d="M347 -1q-18 0 -33.5 12.5t-15.5 32.5v556h-163v-166l42 1q47 0 47 -52l1 -334q0 -28 -12 -40q-12 -10 -41 -10h-81q-29 0 -40 11t-11 40v594q0 30 10.5 43t40.5 13h514q49 0 49 -50v-606q0 -18 -13 -31.5t-31 -13.5t-34 12.5t-16 32.5v556h-167v-555q0 -19 -13.5 -32.5
t-32.5 -13.5z" />
    <glyph glyph-name="N" unicode="N" horiz-adv-x="533" 
d="M139 434l42 1q47 0 47 -52v-333q0 -28 -11 -39.5t-40 -11.5h-84q-29 0 -39 11t-10 40l-1 594q0 29 9.5 42.5t40.5 13.5h349q47 0 47 -50v-606q0 -18 -13.5 -31.5t-32.5 -13.5q-18 0 -34 12.5t-16 32.5v556h-254v-166z" />
    <glyph glyph-name="O" unicode="O" horiz-adv-x="526" 
d="M426 -1h-335q-29 0 -39 11t-10 40v597q0 53 50 53h334q54 0 54 -50v-606q0 -45 -54 -45zM134 600v-507h250v421h-41q-42 0 -42 44l1 21l1 21h-169z" />
    <glyph glyph-name="P" unicode="P" horiz-adv-x="506" 
d="M388 434v166h-251v-166h251zM226 342v-292q0 -30 -10.5 -40.5t-40.5 -10.5l-81 1q-28 0 -39 11t-11 39v597q0 53 48 53h344q49 0 49 -50v-261q0 -47 -50 -47h-209z" />
    <glyph glyph-name="Q" unicode="Q" horiz-adv-x="614" 
d="M519 -1l-428 1q-51 0 -51 52v597q0 29 12 40t39 11h428q53 0 53 -45v-606q0 -50 -53 -50zM477 185v421h-345v-506h89l-3 48q0 24 14 32q12 5 39 5h206z" />
    <glyph glyph-name="R" unicode="R" horiz-adv-x="608" 
d="M386 434v166h-251v-166h251zM520 -3q-18 0 -32.5 15.5t-14.5 33.5v296h-249v-292q0 -29 -11 -40t-39 -11l-82 1q-28 0 -39 11t-11 39v598q0 52 49 52h344q49 0 49 -50v-216h35q27 0 37.5 -11.5t10.5 -39.5l-1 -337q0 -19 -14 -34t-32 -15z" />
    <glyph glyph-name="S" unicode="S" horiz-adv-x="532" 
d="M489 383v-334q0 -50 -49 -50h-345q-51 0 -51 51l-1 169q0 19 14 33t33 14q51 0 51 -85l-2 -46l-2 -35h166v244h-211q-29 0 -38.5 10.5t-9.5 39.5v253q0 53 48 53h344q53 0 53 -50v-95q0 -17 -14.5 -31.5t-32.5 -14.5q-33 0 -43 32q-4 13 -4 59h-258v-166h303q31 0 39 -11
q10 -10 10 -40z" />
    <glyph glyph-name="T" unicode="T" horiz-adv-x="447" 
d="M441 649q0 -50 -87 -50l-47 2l-36 3v-170l42 1q46 0 46 -52v-334q0 -28 -11 -39t-39 -11h-82q-29 0 -40 11t-11 40l1 554l-35 -3l-46 -2q-86 0 -86 51q0 17 12.5 33.5t30.5 16.5l342 1q20 0 33 -16t13 -36z" />
    <glyph glyph-name="U" unicode="U" horiz-adv-x="526" 
d="M436 700q19 0 33 -14q15 -12 15 -31v-606q0 -50 -53 -50h-340q-30 0 -41 10q-10 12 -10 41v604q0 19 14 33t33 14t33.5 -14t14.5 -32v-221l42 1q27 0 37 -12t10 -40v-289h164l-1 561q0 17 15 32q16 13 34 13z" />
    <glyph glyph-name="V" unicode="V" horiz-adv-x="608" 
d="M475 434v220q0 18 14 32t33 14t33 -14q15 -12 15 -31v-263q0 -40 -24 -48l-59 -2v-292q0 -30 -10.5 -40.5t-39.5 -10.5h-256q-27 0 -37 12t-10 39v215h-38q-49 0 -49 50v338q0 27 11.5 37t38.5 10h84q27 0 38.5 -11.5t11.5 -39.5v-556h155v291q0 51 47 51h20z" />
    <glyph glyph-name="W" unicode="W" 
d="M701 700q18 0 32 -14q14 -12 14 -31v-606q0 -28 -11 -39t-40 -11l-602 1q-29 0 -40 10q-10 12 -10 40l-1 605q0 18 14 32q16 13 34 13q58 0 58 -124q0 -17 -1 -38.5t-4 -47.5l-5 -56l43 1q46 0 46 -52v-289h163v561q0 17 15 32q16 13 34 13t32 -14q15 -12 15 -31v-561
h165v561q0 17 15 32q16 13 34 13z" />
    <glyph glyph-name="X" unicode="X" horiz-adv-x="628" 
d="M535 437q-20 0 -35 11.5t-15 30.5l1 175q0 18 15 32t32 14q19 0 34 -14q15 -12 15 -31v-171q0 -19 -14 -33t-33 -14zM92 437q-19 0 -34 11.5t-15 30.5v175q0 18 15 32t32 14q19 0 33 -14q15 -12 15 -31v-171q0 -19 -14 -33t-32 -14zM581 387v-338q0 -20 -13 -36t-33 -16
t-35.5 13.5t-15.5 33.5v298h-257v-292q0 -29 -11 -40t-40 -11h-84q-29 0 -39 11t-10 40v337q0 27 10.5 38t38.5 11h438q51 0 51 -49z" />
    <glyph glyph-name="Y" unicode="Y" horiz-adv-x="615" 
d="M341 -1h-81q-29 0 -40 11t-11 40v290l-43 -3l-48 -3q-76 0 -76 56l-1 265q0 18 14 32q16 13 34 13q55 0 55 -122q0 -16 -1 -37.5t-4 -47.5l-4 -59h338v220q0 20 15 33.5t34 13.5t33.5 -14t14.5 -32v-266q0 -56 -82 -56l-52 3l-43 4v-290q0 -51 -52 -51z" />
    <glyph glyph-name="Z" unicode="Z" horiz-adv-x="528" 
d="M137 600l1 -24q0 -35 -10.5 -51t-36.5 -16q-19 0 -33 13.5t-14 31.5v95q0 51 51 51l345 1q49 0 49 -53v-254q0 -30 -10 -40t-39 -10h-212v-251l166 -1l-3 34l-2 47q0 92 53 92q18 0 32 -14q15 -12 15 -31l-1 -170q0 -51 -52 -51h-344q-27 0 -37.5 11.5t-10.5 39.5v333
q0 31 8.5 41t39.5 10h303v166h-258z" />
    <glyph glyph-name="bracketleft" unicode="[" horiz-adv-x="310" 
d="M67 -92v871h193v-81h-105v-713h105v-77h-193z" />
    <glyph glyph-name="backslash" unicode="\" horiz-adv-x="496" 
d="M461 -1h-61l-364 701h74z" />
    <glyph glyph-name="bracketright" unicode="]" horiz-adv-x="304" 
d="M144 -15v713h-106v81h192v-871h-192v77h106z" />
    <glyph glyph-name="asciicircum" unicode="^" horiz-adv-x="331" 
d="M296 604h-44l-87 38l-78 -38h-50l128 96z" />
    <glyph glyph-name="underscore" unicode="_" 
d="M818 -52q0 -13 -24 -13h-816l-18 3l-9 10q5 15 27 15h815q11 -3 17.5 -6t7.5 -9z" />
    <glyph glyph-name="grave" unicode="`" horiz-adv-x="249" 
d="M193 580l-164 71l58 49l120 -101z" />
    <glyph glyph-name="a" unicode="a" horiz-adv-x="443" 
d="M320 347v131h-200v-131h200zM150 -1h-66q-40 0 -40 40l-1 479q0 42 41 42l271 1q23 0 33 -9t10 -35v-478q0 -15 -9.5 -28t-25.5 -14q-15 0 -29 11q-11 12 -13 28v221h-131l1 -217q0 -41 -41 -41z" />
    <glyph glyph-name="b" unicode="b" horiz-adv-x="505" 
d="M316 347v131h-199v-131h199zM386 271h-197v-197h197v197zM42 39v479q0 42 38 42l276 1q40 0 40 -42v-172l21 1q46 0 46 -41v-271q0 -37 -42 -37h-339q-26 0 -34 9q-6 9 -6 31z" />
    <glyph glyph-name="c" unicode="c" horiz-adv-x="442" 
d="M189 74h132l-1 21q0 24 7 38q9 14 32 14q16 0 27.5 -9.5t11.5 -24.5v-78q0 -36 -42 -36h-277q-22 0 -30 9q-7 11 -7 31v479q0 42 38 42l276 1q42 0 42 -42v-75q0 -14 -10.5 -24.5t-27.5 -12.5q-26 0 -35 25q-2 8 -3 17t-1 29h-204v-131h32q40 0 40 -40v-233z" />
    <glyph glyph-name="d" unicode="d" horiz-adv-x="435" 
d="M351 -1h-273q-40 0 -40 40v479q0 42 41 42h274q40 0 40 -41v-484q0 -36 -42 -36zM113 478v-131h32q42 0 42 -40v-233h133v404h-207z" />
    <glyph glyph-name="e" unicode="e" horiz-adv-x="431" 
d="M117 347l234 -1q14 0 24 -11.5t12 -27.5q0 -43 -90 -43l-63 3l-45 4v-197l38 3l61 3q99 0 99 -45q0 -14 -10 -24t-26 -12h-272q-22 0 -30 9q-7 11 -7 31l-1 482q0 39 39 39h271q14 0 24 -11.5t12 -27.5q0 -16 -11 -27q-9 -12 -25 -12h-234v-135z" />
    <glyph glyph-name="f" unicode="f" horiz-adv-x="404" 
d="M147 -1h-65q-26 0 -34 9q-6 9 -6 31v479q0 42 38 42h271q14 0 24 -11.5t12 -27.5q0 -16 -11 -27q-9 -12 -25 -12h-234v-135l234 -1q14 0 26 -12q9 -11 11 -27q0 -43 -91 -43l-63 3l-45 4v-232q0 -21 -9 -32q-10 -8 -33 -8z" />
    <glyph glyph-name="g" unicode="g" horiz-adv-x="430" 
d="M253 237q0 14 9.5 25.5t25.5 11.5h63q40 0 40 -40v-199q0 -36 -42 -36h-267q-40 0 -40 40v479q0 42 40 42l268 1q43 0 43 -42v-75q0 -15 -12 -27q-11 -9 -27 -11q-26 0 -35 24q-3 14 -3 48h-197v-131l28 -1q43 0 43 -39v-233h123v128q-29 0 -44.5 5t-15.5 30z" />
    <glyph glyph-name="h" unicode="h" horiz-adv-x="442" 
d="M148 -1l-66 1q-23 0 -31 8q-7 11 -7 31v486q0 15 10 24.5t26 10.5q16 0 27.5 -9.5t11.5 -24.5v-179h202l1 178q0 15 11 24.5t27 11.5q14 0 26 -11q12 -9 12 -24l1 -487q0 -16 -11 -28t-26 -12t-28 11t-13 26v236h-131v-233q0 -40 -42 -40z" />
    <glyph glyph-name="i" unicode="i" horiz-adv-x="268" 
d="M167 -1h-65q-40 0 -40 40v486q0 14 10 23.5t26 11.5q16 0 27.5 -9.5t11.5 -24.5v-179h32q40 0 40 -40v-268q0 -21 -9 -32q-10 -8 -33 -8z" />
    <glyph glyph-name="j" unicode="j" horiz-adv-x="438" 
d="M42 39l-1 142q0 14 12 25q11 8 28 10q42 0 42 -71l-2 -40l-2 -31h129v451q0 14 11.5 24t27.5 12q14 0 26 -11q12 -9 12 -24v-179h31q40 0 40 -40v-268q0 -40 -42 -40h-272q-40 0 -40 40z" />
    <glyph glyph-name="k" unicode="k" horiz-adv-x="435" 
d="M396 307l1 -270q0 -16 -11 -27q-9 -12 -24 -12t-27.5 10.5t-14.5 27.5v236h-131v-233q0 -40 -41 -40h-66q-40 0 -40 40v486q0 15 11 25q11 8 27 10q16 0 27.5 -9.5t11.5 -24.5v-179h129v178q0 14 11.5 24t27.5 12q14 0 26 -11q12 -9 12 -24v-179h31q40 0 40 -40z" />
    <glyph glyph-name="l" unicode="l" horiz-adv-x="406" 
d="M37 39v486q0 15 11 24.5t26 10.5q16 0 27.5 -9.5t11.5 -24.5v-179l34 1q36 0 36 -41v-233h177q14 0 26 -11.5t12 -26.5q0 -14 -9.5 -24.5t-25.5 -12.5h-286q-40 0 -40 40z" />
    <glyph glyph-name="m" unicode="m" horiz-adv-x="576" 
d="M286 -3q-14 0 -27 12t-13 27v442h-129v-131h32q40 0 40 -40v-268q0 -40 -42 -40h-65q-24 0 -32 9t-8 31v479q0 42 38 42l413 1q40 0 40 -42l-1 -483q0 -15 -9.5 -25t-25.5 -12q-15 0 -28 11t-13 26v442h-133v-441q0 -16 -11 -28t-26 -12z" />
    <glyph glyph-name="n" unicode="n" horiz-adv-x="440" 
d="M119 347h34q37 0 37 -40v-268q0 -40 -42 -40l-66 1q-23 0 -31 8q-7 11 -7 31v478q0 43 38 43l276 1q40 0 40 -42v-483q0 -14 -9.5 -25t-24.5 -12q-15 0 -28 11t-13 26v442h-204v-131z" />
    <glyph glyph-name="o" unicode="o" horiz-adv-x="430" 
d="M346 -1h-266q-26 0 -34 9q-6 9 -6 31v479q0 42 39 42l267 1q43 0 43 -42v-484q0 -36 -43 -36zM113 478v-404h200v338l-12 -1q-6 -1 -12 -1h-9q-16 0 -23 4q-10 7 -10 29l1 35h-135z" />
    <glyph glyph-name="p" unicode="p" horiz-adv-x="413" 
d="M318 347v131h-201v-131h201zM189 272v-233q0 -40 -42 -40h-65q-26 0 -34 9q-6 9 -6 31v479q0 42 38 42h276q40 0 40 -41l1 -208q0 -39 -43 -39h-165z" />
    <glyph glyph-name="q" unicode="q" horiz-adv-x="499" 
d="M424 -1h-338q-44 0 -44 42v482q0 20 9.5 28.5t30.5 8.5l342 1q39 0 39 -35v-487q0 -40 -39 -40zM187 134l11 11q24 4 36 5t28 1l65 -1l64 -2v336h-276v-403h70v11z" />
    <glyph glyph-name="r" unicode="r" horiz-adv-x="503" 
d="M316 347v131h-199v-131h199zM424 -1q-16 0 -26 10.5t-12 26.5v236h-197v-233q0 -40 -42 -40h-65q-26 0 -34 9q-6 9 -6 31v479q0 42 38 42h276q40 0 40 -41v-172h22q45 0 45 -40v-270q0 -15 -10.5 -25.5t-28.5 -12.5z" />
    <glyph glyph-name="s" unicode="s" horiz-adv-x="438" 
d="M396 307v-268q0 -40 -40 -40h-274q-42 0 -42 40v136q0 15 11 26q11 9 27 11q40 0 40 -70l-2 -35l-1 -26h133v192h-169q-22 0 -30.5 9.5t-8.5 32.5v203q0 42 39 42l275 1q42 0 42 -42v-75q0 -14 -10.5 -24.5t-27.5 -12.5q-38 0 -38 71h-205v-131l241 -1q40 0 40 -39z" />
    <glyph glyph-name="t" unicode="t" horiz-adv-x="374" 
d="M348 520q0 -42 -65 -42l-38 2l-31 2v-135h31q40 0 40 -40l1 -268q0 -40 -42 -40h-65q-42 0 -42 40l1 443l-34 -3l-33 -2q-27 0 -44 7q-22 11 -22 36q0 40 34 40h274q14 0 25 -12q8 -11 10 -28z" />
    <glyph glyph-name="u" unicode="u" horiz-adv-x="433" 
d="M358 560q13 0 25.5 -9.5t12.5 -24.5v-487q0 -40 -42 -40h-275q-22 0 -30 9q-7 11 -7 31v486q0 15 10 24.5t26 10.5q16 0 27.5 -9.5t11.5 -24.5v-179h32q40 0 40 -40v-231h131v449q0 14 11 23.5t27 11.5z" />
    <glyph glyph-name="v" unicode="v" horiz-adv-x="501" 
d="M381 347l1 178q0 14 11 23.5t25 11.5q16 0 27.5 -9.5t11.5 -24.5v-213q0 -29 -19 -38q-8 -3 -47 -3v-233q0 -40 -40 -40h-203q-38 0 -38 40v173l-23 -1q-29 0 -40 7q-5 16 -7 34v268q0 27 10 33.5t30 6.5h65q42 0 42 -40v-446h122v234q0 40 40 40h16z" />
    <glyph glyph-name="w" unicode="w" horiz-adv-x="643" 
d="M564 560q13 0 25.5 -9.5t12.5 -24.5v-486q0 -41 -41 -41h-484q-21 0 -30 9q-7 11 -7 31v486q0 15 10.5 24.5t26.5 10.5q46 0 46 -100v-30q-3 -25 -4 -39l-4 -44h32q40 0 40 -40v-231h131v449q0 14 11.5 24t27.5 12q14 0 26 -11q12 -9 12 -24v-450h131v449q0 14 11 23.5
t27 11.5z" />
    <glyph glyph-name="x" unicode="x" horiz-adv-x="513" 
d="M435 350q-14 0 -29 9q-11 9 -13 24v142q0 13 11.5 23t28.5 12q14 0 26 -11q12 -9 12 -23l1 -137q0 -16 -10 -27.5t-27 -11.5zM80 350q-14 0 -27 9t-13 24v142q0 14 12 25q11 8 28 10q16 0 27.5 -9.5t11.5 -24.5l-1 -138q0 -16 -10 -26t-28 -12zM471 309v-270
q0 -16 -10.5 -28t-26.5 -13q-15 0 -29 11q-12 12 -12 27v236h-206v-233q0 -40 -40 -40h-67q-24 0 -32 9t-8 31v270q0 39 40 39h349q42 0 42 -39z" />
    <glyph glyph-name="y" unicode="y" horiz-adv-x="488" 
d="M270 -1h-67q-40 0 -40 40v233l-36 -3l-37 -2q-62 0 -62 43v215q0 15 11 24.5t27 11.5q46 0 46 -98v-28q-3 -25 -4 -39l-3 -49h270l-1 178q0 13 11.5 23t26.5 12q16 0 27.5 -9.5t11.5 -24.5v-216q0 -43 -66 -43l-42 2l-33 3v-233q0 -40 -40 -40z" />
    <glyph glyph-name="z" unicode="z" horiz-adv-x="440" 
d="M117 478v-16q0 -55 -37 -55q-16 0 -27 10q-9 10 -11 26l-1 75q0 42 43 42l274 1q40 0 40 -42v-204q0 -25 -6.5 -33.5t-31.5 -8.5h-171v-199l132 1l-2 31l-1 32q0 75 41 75q12 0 25 -11t14 -26v-137q0 -40 -42 -40l-276 1q-38 0 -38 39v269q0 28 8.5 33.5t29.5 5.5h241
v131h-204z" />
    <glyph glyph-name="braceleft" unicode="{" horiz-adv-x="265" 
d="M228 686q-49 0 -59 -11q-6 -8 -6 -60v-172q0 -39 -68 -85q72 -36 72 -128q0 -20 -6 -64l-5 -59q0 -72 72 -72v-49q-72 0 -102 43q-22 35 -22 103l3 71l3 70q0 23 -27 49q-4 4 -19 15.5t-28 20.5q81 45 81 155l-3 58l-3 54q0 50 21 76q28 31 94 31z" />
    <glyph glyph-name="bar" unicode="|" horiz-adv-x="256" 
d="M96 700h57v-701h-57v701z" />
    <glyph glyph-name="braceright" unicode="}" horiz-adv-x="276" 
d="M230 358q-49 -37 -66 -68q-8 -15 -12 -29.5t-4 -34.5l4 -58l4 -73q0 -60 -27.5 -84t-89.5 -24l-2 12l1 18v18q71 0 71 69q0 7 -1 22t-4 35l-5 65q0 94 71 132q-74 50 -74 143q0 24 6 66l6 58q0 61 -70 61l2 47q66 0 94 -31q20 -25 20 -77l-3 -53l-2 -57q0 -110 81 -157z
" />
    <glyph glyph-name="asciitilde" unicode="~" horiz-adv-x="315" 
d="M123 688q21 0 48.5 -21.5t44.5 -24.5q24 9 34 32l27 -9q-8 -28 -32 -48.5t-52 -20.5q-21 0 -51 23.5t-48 23.5q-14 0 -31 -27l-27 10q30 62 87 62z" />
    <glyph glyph-name="florin" unicode="&#x192;" horiz-adv-x="473" 
d="M318 493h94l-7 -39h-98l-29 -173q-16 -87 -33 -151t-38 -116q-54 -138 -120 -138q-19 0 -33.5 12t-14.5 31q0 18 15 31t32 13l11 -2q10 -22 21 -25q27 0 48 83l21 109l64 328h-102l2 39h116q53 276 147 276q18 0 30.5 -14t12.5 -32q0 -12 -18 -24q-16 -9 -31 -11
q-29 20 -39 20q-18 0 -33 -96z" />
    <glyph glyph-name="quotedblbase" unicode="&#x201e;" horiz-adv-x="478" 
d="M40 56v41q0 27 11.5 37.5t39.5 10.5l83 -1q26 0 37.5 -11.5t11.5 -38.5v-136q0 -17 -12.5 -30.5t-29.5 -13.5q-37 0 -47 31q-3 12 -3 62l-22 -1l-19 -1q-50 0 -50 51zM257 56l-1 38q0 29 10 40q13 11 41 11l83 -1q29 0 39 -10.5t10 -39.5l1 -136q0 -17 -12.5 -30.5
t-30.5 -13.5q-37 0 -47 31q-3 12 -3 62h-19l-20 -1q-28 0 -39.5 11.5t-11.5 38.5z" />
    <glyph glyph-name="ellipsis" unicode="&#x2026;" horiz-adv-x="767" 
d="M172 -1h-81q-29 0 -40 11t-11 40v37q0 30 11 40t40 10h82q29 0 39.5 -10t10.5 -40l-1 -40q0 -28 -10.5 -38t-39.5 -10zM421 -1h-84q-29 0 -38.5 11t-9.5 40v37q0 30 11 40t40 10h81q29 0 39 -11q11 -9 11 -39v-40q0 -27 -10.5 -37.5t-39.5 -10.5zM673 -1h-83
q-30 0 -41 10q-10 12 -10 41v38q0 49 51 49h84q28 0 39 -11t11 -39v-37q0 -29 -11 -40t-40 -11z" />
    <glyph glyph-name="dagger" unicode="&#x2020;" horiz-adv-x="469" 
d="M38 458q0 47 105 47l49 -2l-3 36l-2 56q0 103 49 103q55 0 55 -99l-3 -56l-3 -39h42q106 0 106 -46q0 -50 -103 -50l-45 2v-465q0 -18 -14.5 -33t-34.5 -15q-17 0 -30.5 15t-13.5 33v465l-52 -2q-102 0 -102 50z" />
    <glyph glyph-name="daggerdbl" unicode="&#x2021;" horiz-adv-x="934" 
d="M935 581l-29 -61q-83 102 -230 102q-91 0 -161 -53t-95 -137h445l-30 -63h-429l-2 -33l2 -30h400l-30 -63h-356q27 -89 98 -140.5t168 -51.5q137 0 220 99v-85q-97 -77 -225 -77q-122 0 -213.5 68.5t-118.5 186.5h-113l30 63h71l-1 31l1 32h-101l30 63h83
q27 117 119.5 185t217.5 68q72 0 140.5 -27.5t108.5 -76.5z" />
    <glyph glyph-name="circumflex" unicode="&#x2c6;" horiz-adv-x="413" 
d="M396 526h-45l-85 37l-78 -37h-53l131 96z" />
    <glyph glyph-name="guilsinglleft" unicode="&#x2039;" 
d="M351 130h-53q-31 0 -42 10q-10 12 -10 42v375q0 30 11 41t42 11h52q52 0 52 -51v-376q0 -31 -10.5 -41.5t-41.5 -10.5zM735 493l-134 1q-30 0 -40.5 11.5t-10.5 40.5v135q0 31 12 42t41 11h135q29 0 39 -11.5t10 -40.5l-1 -139q0 -30 -11.5 -40t-39.5 -10zM735 -1l-134 1
q-30 0 -40.5 11.5t-10.5 39.5v136q0 30 12 41t41 11h135q28 0 38.5 -12t10.5 -39l-1 -139q0 -30 -11.5 -40t-39.5 -10z" />
    <glyph glyph-name="OE" unicode="&#x152;" horiz-adv-x="718" 
d="M132 600v-507h198v421l-32 -1q-52 0 -52 43l1 21l1 23h-116zM676 648q0 -53 -124 -53h-38q-30 3 -47 4l-53 5l1 -172l61 4l84 5q116 0 116 -57q0 -50 -91 -50l-49 2l-34 3v-247l35 2l48 3q91 0 91 -53q0 -18 -13 -31.5t-32 -13.5l-544 1q-30 0 -39.5 5t-9.5 30l1 614
q0 49 48 49h545q18 0 31 -16t13 -34z" />
    <glyph glyph-name="quoteleft" unicode="&#x2018;" horiz-adv-x="268" 
d="M226 558v-39q0 -26 -11.5 -37.5t-39.5 -11.5l-83 -1q-27 0 -38 10q-10 12 -10 40l-1 136q0 16 12 30.5t31 14.5q36 0 46 -31q2 -7 3 -20t1 -41l20 1h19q51 0 51 -51z" />
    <glyph glyph-name="quoteright" unicode="&#x2019;" horiz-adv-x="268" 
d="M42 612v38q0 28 11 39t39 11h83q27 0 38 -11q11 -9 11 -39l1 -136q0 -17 -13 -30.5t-29 -13.5q-37 0 -47 31q-2 8 -3 20.5t-1 40.5h-19l-19 -1q-52 0 -52 51z" />
    <glyph glyph-name="quotedblleft" unicode="&#x201c;" horiz-adv-x="476" 
d="M439 558v-39q0 -49 -51 -49h-82q-28 0 -38.5 10t-10.5 39l-1 136q0 16 12 30.5t31 14.5q36 0 46 -31q3 -15 3 -61h35q56 0 56 -50zM223 558v-39q0 -49 -53 -49h-81q-28 0 -39 10q-10 12 -10 39v136q0 16 12 30.5t30 14.5q36 0 46 -31q2 -9 3 -21t1 -40h37q54 0 54 -50z
" />
    <glyph glyph-name="quotedblright" unicode="&#x201d;" horiz-adv-x="478" 
d="M40 612v40q0 28 11.5 38t39.5 10h83q27 0 38 -11t11 -39v-136q0 -17 -13 -30.5t-29 -13.5q-37 0 -47 31q-3 12 -3 61h-21l-20 -1q-50 0 -50 51zM257 612l-1 37q0 29 10 40q13 11 41 11h83q29 0 39 -10.5t10 -39.5l1 -136q0 -17 -13 -30.5t-30 -13.5q-37 0 -47 31
q-3 12 -3 61h-39q-29 0 -38.5 10t-12.5 40z" />
    <glyph glyph-name="endash" unicode="&#x2013;" horiz-adv-x="430" 
d="M398 297q0 -19 -14 -34q-12 -15 -31 -15h-281q-20 0 -33 14t-13 33q0 18 14 32.5t32 14.5h279q18 0 32 -14q15 -12 15 -31z" />
    <glyph glyph-name="emdash" unicode="&#x2014;" 
d="M741 299q0 -19 -14 -33.5t-33 -14.5h-605q-20 0 -33.5 14.5t-13.5 33.5q0 18 13 32q15 13 34 13h601q19 0 35 -13t16 -32z" />
    <glyph glyph-name="tilde" unicode="&#x2dc;" horiz-adv-x="409" 
d="M237 647q21 0 49 -21t46 -24l20 11l1 4l11 17l27 -10q-7 -23 -33 -46t-51 -23q-21 0 -51 23.5t-48 23.5t-30 -27l-27 12q29 60 86 60z" />
    <glyph glyph-name="trademark" unicode="&#x2122;" horiz-adv-x="580" 
d="M223 677q0 -27 -44 -27l-23 1l-17 1v-80h10q34 0 34 -23v-162q0 -9 -6 -21l-18 -4h-41l-20 4q-10 30 -10 106l2 90l3 90l-18 -1l-18 -1q-43 0 -43 26q0 8 5.5 15t16.5 9l164 1q8 0 14.5 -7t8.5 -17zM394 358q-23 0 -23 22v264h-77v-77h14q27 0 27 -24v-162q0 -9 -4 -18
l-21 -5h-39q-11 0 -21 5l-4 18v289q0 26 24 26l248 -1q23 0 23 -24v-291q0 -12 -20 -23q-24 3 -24 23v264h-81v-264q0 -22 -22 -22z" />
    <glyph glyph-name="guilsinglright" unicode="&#x203a;" 
d="M354 -1h-68q-30 0 -41 11q-9 11 -9 41v225q0 30 11.5 40t40.5 10h55q50 0 50 -50l-1 -230q0 -47 -38 -47zM735 407h-51q-31 0 -42.5 11.5t-11.5 41.5v221q0 31 12 42t42 11h54q31 0 40 -11.5t9 -40.5v-225q0 -30 -10 -40t-42 -10zM515 190q-42 0 -42 46v267
q0 18 11.5 32.5t28.5 14.5q40 0 40 -47l1 -267q0 -18 -11 -32t-28 -14z" />
    <glyph glyph-name="oe" unicode="&#x153;" horiz-adv-x="590" 
d="M117 477v-403h155v336h-11l-42 2l-10 10l-2 55h-90zM45 41v477q0 41 41 41l429 -1q14 0 25 -12q8 -11 10 -27q0 -44 -98 -44l-68 3l-44 4l1 -135l44 3l67 4q98 0 98 -45q0 -41 -68 -41l-40 2l-30 2v-194l32 2l33 2q75 0 75 -43q0 -15 -9 -24.5t-26 -11.5h-434
q-38 0 -38 38z" />
    <glyph glyph-name="Ydieresis" unicode="&#x178;" horiz-adv-x="615" 
d="M341 -1h-81q-29 0 -40 11t-11 40v290l-43 -3l-48 -3q-76 0 -76 56l-1 265q0 18 14 32q16 13 34 13q55 0 55 -122q0 -16 -1 -37.5t-4 -47.5l-4 -59h338v220q0 20 15 33.5t34 13.5t33.5 -14t14.5 -32v-266q0 -56 -82 -56l-52 3l-43 4v-290q0 -51 -52 -51zM235 727
q-17 0 -31 13q-13 15 -13 31q0 17 12 31.5t31 14.5q18 0 32 -14q14 -12 14 -32q0 -18 -14.5 -31t-30.5 -13zM383 728q-17 0 -31 13q-13 15 -13 31q0 17 12.5 31.5t31.5 14.5q18 0 31.5 -13.5t13.5 -32.5q0 -18 -14.5 -31t-30.5 -13z" />
    <glyph glyph-name="nonbreakingspace" unicode="&#xa0;" horiz-adv-x="244" 
 />
    <glyph glyph-name="exclamdown" unicode="&#xa1;" horiz-adv-x="315" 
d="M118 500h81q52 0 52 -50v-407q0 -18 -15 -33q-16 -13 -34 -13q-52 0 -52 95l3 53l3 38l-44 -2q-45 0 -45 50v219q0 50 51 50zM118 698h81q28 0 39 -11q13 -10 13 -37l1 -40q0 -48 -52 -48h-82q-29 0 -40 9.5t-11 38.5v39q0 29 11 39t40 10z" />
    <glyph glyph-name="cent" unicode="&#xa2;" horiz-adv-x="331" 
d="M168 120l-16 7q-6 11 -9 29l1 35l2 32l-51 -3q-21 0 -31.5 1.5t-17.5 5.5q-1 11 -2 16t-2 8v336q0 9 6 21q11 7 31 10h34l33 -2l-2 25l-2 23q0 53 27 53t27 -54v-26q-3 -14 -4 -21l58 1q43 0 43 -44v-19l-1 -21q0 -25 -28 -25q-18 0 -22.5 12t-4.5 37h-143v-91h14
q20 0 33 -5q10 -22 10 -70l-3 -63l-2 -53h91v13q0 39 28 39q29 0 29 -45q0 -38 -10 -51t-30 -13l-28 2l-34 2l2 -26l2 -26q0 -50 -28 -50z" />
    <glyph glyph-name="sterling" unicode="&#xa3;" horiz-adv-x="566" 
d="M23 388q0 46 70 46l-1 213q0 51 51 51l338 1q17 0 32 -15q13 -16 13 -35q0 -18 -13.5 -31.5t-31.5 -13.5h-292v-170l35 2l34 2q86 0 86 -50q0 -49 -67 -49l-1 -247l48 4l78 4q124 0 124 -54q0 -19 -14 -33q-12 -14 -31 -14h-336q-52 0 -52 51l-1 289q-69 0 -69 49z" />
    <glyph glyph-name="currency" unicode="&#xa4;" 
d="M708 549q-90 110 -240 110q-92 0 -162.5 -52.5t-97.5 -135.5h464l-35 -75h-445l-2 -30l2 -26h419l-36 -75h-366q28 -87 100 -138.5t169 -51.5q141 0 234 112v-105q-103 -82 -239 -82q-127 0 -223 71.5t-126 193.5h-122l36 75h72l-1 27l1 29h-108l36 75h86q30 121 127 192
t227 71q75 0 147.5 -30t117.5 -82z" />
    <glyph glyph-name="yen" unicode="&#xa5;" horiz-adv-x="612" 
d="M42 390l-1 265q0 18 15 31.5t32 13.5q55 0 55 -127v-48q-3 -24 -4 -36l-4 -55h338q0 6 -1 22t-4 43l-4 84q0 117 57 117q19 0 33 -14q16 -13 16 -31v-265q0 -56 -84 -56l-51 3l-42 3v-52q109 0 109 -48q0 -46 -109 -46v-23q108 0 108 -45q0 -48 -108 -48l1 -26
q0 -31 -11 -42t-42 -11h-81q-39 0 -48 22q-3 11 -3 57q-102 0 -102 49q0 44 102 44v23q-102 0 -102 46q0 47 102 47l-1 54l-50 -4l-49 -3q-67 0 -67 56z" />
    <glyph glyph-name="section" unicode="&#xa7;" horiz-adv-x="379" 
d="M142 285h86v137h-86v-137zM302 -1h-227q-35 0 -35 35v91q0 12 9.5 21t22.5 9q33 0 33 -52l-2 -36h161l-1 138l-60 -1l-63 -1q-51 0 -96 9q-1 11 -2 17.5t-2 8.5l1 427q0 33 31 33l229 1q21 0 28.5 -13.5t7.5 -35.5q0 -41 -3 -50q-6 -28 -32 -28q-21 0 -25.5 15t-4.5 45
h-169v-130h198q34 0 34 -33v-437q0 -33 -33 -33z" />
    <glyph glyph-name="dieresis" unicode="&#xa8;" horiz-adv-x="313" 
d="M82 611q-18 0 -31 13t-13 31q0 17 12.5 31t30.5 14t32 -14q14 -12 14 -31q0 -18 -13.5 -31t-31.5 -13zM229 611q-17 0 -30 14t-13 30q0 18 12.5 32t31.5 14q18 0 31 -14.5t13 -32.5q0 -17 -13.5 -30t-31.5 -13z" />
    <glyph glyph-name="copyright" unicode="&#xa9;" horiz-adv-x="614" 
d="M33 426q0 111 81.5 192.5t193.5 81.5q110 0 191 -81.5t81 -192.5q0 -113 -80 -194t-193 -81q-110 0 -192 81t-82 194zM541 426q0 95 -70 165t-164 70q-93 0 -163 -70t-70 -165q0 -94 69 -164t164 -70q94 0 164 70t70 164zM287 461q5 -10 8 -45l-1 -63l-2 -50h81l-1 10
q0 34 23 34q7 0 15.5 -6.5t8.5 -14.5v-49q0 -9 -7 -16l-18 -4h-165l-22 4l-4 20l1 288q0 10 5 20q7 3 20 5l164 1q26 0 26 -26v-45q0 -22 -24 -22q-22 0 -22 43h-123l-1 -79q28 0 38 -5z" />
    <glyph glyph-name="ordfeminine" unicode="&#xaa;" horiz-adv-x="295" 
d="M203 574v76h-117v-76h117zM124 368l-22 -4h-40l-18 4l-4 19v287l4 20q8 6 19 8l166 -1q24 0 24 -26l1 -288q0 -7 -8 -15q-5 -7 -14 -8q-32 0 -32 72l2 47l3 35h-76l2 -46l2 -46q0 -37 -9 -58zM247 290q0 -23 -30 -23h-146q-26 0 -29 23q0 21 30 21h146q9 0 18.5 -6.5
t10.5 -14.5z" />
    <glyph glyph-name="guillemotleft" unicode="&#xab;" horiz-adv-x="533" 
d="M241 397l-141 -100l137 -98v-106l-195 155v98l199 150v-99zM492 397l-141 -100l138 -98v-106l-198 155v98l201 150v-99z" />
    <glyph glyph-name="logicalnot" unicode="&#xac;" horiz-adv-x="764" 
d="M40 291h684v-292h-58v237h-626v55z" />
    <glyph glyph-name="registered" unicode="&#xae;" horiz-adv-x="608" 
d="M37 426q0 109 81.5 191.5t191.5 82.5t192 -82t82 -192t-81 -192.5t-193 -82.5q-110 0 -191.5 81.5t-81.5 193.5zM544 426q0 97 -70.5 166t-165.5 69q-93 0 -163 -70t-70 -165q0 -49 16.5 -89t51.5 -76q69 -69 164 -69q94 0 165.5 69t71.5 165zM353 468v78h-120v-78h120z
M419 258q-9 0 -16 6t-9 17v141h-119l2 -49l3 -49q0 -40 -10 -61q-6 -3 -18 -5h-39q-11 0 -21 5l-4 20v288q0 8 6 19q9 6 17 6h165q11 0 19 -5q5 -10 8 -37v-46l-2 -40q25 0 35 -5q3 -7 5 -20v-162q0 -8 -6 -14.5t-16 -8.5z" />
    <glyph glyph-name="degree" unicode="&#xb0;" horiz-adv-x="349" 
d="M43 467q0 55 38.5 93.5t92.5 38.5t93.5 -39.5t39.5 -92.5q0 -54 -39 -93t-93 -39t-93 39t-39 93zM79 468q0 -39 28 -67.5t67 -28.5t67.5 28.5t28.5 67.5t-29.5 67t-67.5 28q-39 0 -66.5 -27.5t-27.5 -67.5z" />
    <glyph glyph-name="plusminus" unicode="&#xb1;" horiz-adv-x="392" 
d="M354 346q0 -34 -64 -34l-33 2l-33 4l2 -33l3 -32q0 -63 -32 -63q-34 0 -34 63l2 34l3 31l-58 -5q-68 0 -68 33q0 32 63 32l35 -2l26 -1l-3 30l-2 30q0 25 7 45.5t29 20.5q32 0 32 -68q0 -13 -1 -28t-4 -30l31 2l33 2q66 0 66 -33zM322 116q0 -17 -15 -28q-17 -10 -34 -10
h-167q-19 0 -33.5 10.5t-14.5 27.5t16.5 27t33.5 10l164 -1q18 0 34 -10t16 -26z" />
    <glyph glyph-name="acute" unicode="&#xb4;" horiz-adv-x="256" 
d="M222 651l-165 -71l-14 19l121 101z" />
    <glyph glyph-name="mu" unicode="&#xb5;" horiz-adv-x="612" 
d="M240 49q42 0 83 32t41 73v343h82v-386q0 -30 16 -55.5t44 -25.5q30 0 51 70h18q-20 -119 -126 -119q-32 0 -60 34q-24 30 -27 63q-95 -95 -151 -95q-66 0 -113 57v-31q0 -29 16.5 -83t16.5 -81q0 -23 -13 -44.5t-36 -21.5q-21 0 -35 19.5t-14 40.5q0 28 16 79
q4 13 10 37.5t6 42.5v499h86v-343q0 -41 24.5 -73t64.5 -32z" />
    <glyph glyph-name="paragraph" unicode="&#xb6;" horiz-adv-x="662" 
d="M535 700v-53h-34v-813h-58v813h-142v-813h-58l-1 482q-72 11 -113.5 62t-41.5 124q0 94 64 148q59 50 156 50h228z" />
    <glyph glyph-name="periodcentered" unicode="&#xb7;" horiz-adv-x="276" 
d="M165 244h-59q-20 0 -28.5 6t-8.5 29v28q0 21 8 29t29 8h62q34 0 34 -37l-1 -31q0 -32 -36 -32z" />
    <glyph glyph-name="periodcentered" unicode="&#x2219;" horiz-adv-x="276" 
d="M165 244h-59q-20 0 -28.5 6t-8.5 29v28q0 21 8 29t29 8h62q34 0 34 -37l-1 -31q0 -32 -36 -32z" />
    <glyph glyph-name="ordmasculine" unicode="&#xba;" horiz-adv-x="299" 
d="M227 362h-160q-11 0 -21 5l-4 20v286l4 20q7 3 20 5l161 1q26 0 26 -24v-292q0 -21 -26 -21zM88 649v-240h117v200h-6l-12 1h-12l-7 8l-2 31h-78zM248 288q0 -23 -30 -23h-146q-28 0 -28 23q0 22 31 22l143 -1q30 0 30 -21z" />
    <glyph glyph-name="guillemotright" unicode="&#xbb;" horiz-adv-x="530" 
d="M489 248l-198 -155v106l137 98l-139 100v99l200 -150v-98zM239 248l-197 -155v106l137 98l-141 100v99l201 -150v-98z" />
    <glyph glyph-name="questiondown" unicode="&#xbf;" horiz-adv-x="528" 
d="M135 264v-166h256l-1 22q0 31 9.5 49.5t38.5 18.5q18 0 32 -14q15 -12 15 -31l1 -96q0 -50 -53 -50h-343q-50 0 -50 53l1 254l1 23q3 13 11 20q11 7 36 7h214l-3 40l-3 39q0 65 56 65l82 1q29 0 39.5 -9.5t10.5 -40.5v-135q0 -29 -10 -39.5t-38 -10.5h-302zM353 698l81 1
q29 0 40 -11t11 -40v-38q0 -30 -10.5 -40t-39.5 -10l-85 1q-28 0 -37.5 10.5t-9.5 38.5v41q0 28 11 37.5t39 9.5z" />
    <glyph glyph-name="Agrave" unicode="&#xc0;" horiz-adv-x="528" 
d="M174 -1h-79q-30 0 -41 10q-10 12 -10 41v597q0 53 48 53h342q30 0 40.5 -12t10.5 -42v-597q0 -18 -12 -34t-31 -16q-21 0 -36 12t-15 33v277h-165l1 -271q0 -28 -12.5 -39.5t-40.5 -11.5zM388 434v166h-251v-166h251zM345 743l-164 70l57 49l121 -102z" />
    <glyph glyph-name="Aacute" unicode="&#xc1;" horiz-adv-x="527" 
d="M174 -1h-79q-30 0 -41 10q-10 12 -10 41v597q0 53 48 53h342q30 0 40.5 -12t10.5 -42v-597q0 -18 -12 -34t-31 -16q-21 0 -36 12t-15 33v277h-165l1 -271q0 -28 -12.5 -39.5t-40.5 -11.5zM388 434v166h-251v-166h251zM356 813l-163 -70l-15 17l121 102z" />
    <glyph glyph-name="Acircumflex" unicode="&#xc2;" horiz-adv-x="524" 
d="M174 -1h-79q-30 0 -41 10q-10 12 -10 41v597q0 53 48 53h342q30 0 40.5 -12t10.5 -42v-597q0 -18 -12 -34t-31 -16q-21 0 -36 12t-15 33v277h-165l1 -271q0 -28 -12.5 -39.5t-40.5 -11.5zM388 434v166h-251v-166h251zM393 739h-46l-84 38l-79 -38h-52l131 96z" />
    <glyph glyph-name="Atilde" unicode="&#xc3;" horiz-adv-x="528" 
d="M174 -1h-79q-30 0 -41 10q-10 12 -10 41v597q0 53 48 53h342q30 0 40.5 -12t10.5 -42v-597q0 -18 -12 -34t-31 -16q-21 0 -36 12t-15 33v277h-165l1 -271q0 -28 -12.5 -39.5t-40.5 -11.5zM388 434v166h-251v-166h251zM230 836q22 0 50 -20.5t46 -25.5q23 12 31 33l27 -8
q-9 -26 -33 -49q-24 -21 -51 -21q-21 0 -51 23.5t-49 23.5q-17 0 -29 -28l-28 11q31 61 87 61z" />
    <glyph glyph-name="Adieresis" unicode="&#xc4;" horiz-adv-x="527" 
d="M174 -1h-79q-30 0 -41 10q-10 12 -10 41v597q0 53 48 53h342q30 0 40.5 -12t10.5 -42v-597q0 -18 -12 -34t-31 -16q-21 0 -36 12t-15 33v277h-165l1 -271q0 -28 -12.5 -39.5t-40.5 -11.5zM388 434v166h-251v-166h251zM184 747q-17 0 -31 13q-13 15 -13 31q0 17 12 31.5
t32 14.5q18 0 31.5 -13.5t13.5 -32.5q0 -18 -14.5 -31t-30.5 -13zM334 748q-17 0 -31 13q-13 15 -13 31q0 17 12.5 31.5t30.5 14.5t32 -14q14 -12 14 -32q0 -18 -14.5 -31t-30.5 -13z" />
    <glyph glyph-name="Aring" unicode="&#xc5;" horiz-adv-x="528" 
d="M174 -1h-79q-30 0 -41 10q-10 12 -10 41v597q0 53 48 53h342q30 0 40.5 -12t10.5 -42v-597q0 -18 -12 -34t-31 -16q-21 0 -36 12t-15 33v277h-165l1 -271q0 -28 -12.5 -39.5t-40.5 -11.5zM388 434v166h-251v-166h251zM350 815q0 -30 -23.5 -54.5t-55.5 -24.5
q-33 0 -55.5 23.5t-22.5 56.5q0 32 24 55t55 23q30 0 54 -24t24 -55zM224 815q0 -19 14 -33q16 -13 34 -13t31 14.5t13 31.5q0 18 -13 31.5t-32 13.5t-33 -12.5t-14 -32.5z" />
    <glyph glyph-name="AE" unicode="&#xc6;" 
d="M332 434v166h-198v-166h198zM224 321l1 -272q0 -28 -12 -40q-12 -10 -41 -10h-81q-29 0 -40 11t-11 40v597q0 53 51 53l610 1q18 0 31 -16t13 -36q0 -18 -13 -31.5t-31 -13.5h-272v-170h272q17 0 30.5 -15.5t13.5 -32.5q0 -55 -110 -55h-40q-21 3 -31 4l-46 4v-247l43 3
l69 4q115 0 115 -53q0 -19 -12.5 -33t-31.5 -14l-316 1q-28 0 -39 8t-11 37v276h-111z" />
    <glyph glyph-name="Ccedilla" unicode="&#xc7;" horiz-adv-x="528" 
d="M309 -180q-36 0 -46 31q-5 17 -5 62q-65 0 -77 9q-13 12 -13 77l-33 -1l-33 -2q-62 0 -62 54v598q0 52 49 52h343q53 0 53 -50v-95q0 -18 -14 -32t-32 -14q-34 0 -44 31q-2 9 -3 21t-1 39h-257v-166l36 1q54 0 54 -52v-290h167v27q0 65 47 65q17 0 32 -14t15 -31l1 -95
q0 -49 -69 -49l-34 2l-30 1l2 -35l3 -52q0 -92 -49 -92z" />
    <glyph glyph-name="Egrave" unicode="&#xc8;" horiz-adv-x="503" 
d="M132 434h293q18 0 32.5 -15.5t14.5 -33.5q0 -54 -114 -54h-44q-23 3 -35 4l-56 4v-247l48 4l78 4q123 0 123 -54q0 -19 -14 -33q-12 -14 -32 -14h-337q-30 0 -41 10q-10 12 -10 41v601q0 49 51 49h336q20 0 33 -16t13 -35q0 -18 -13 -31.5t-32 -13.5h-294v-170zM315 741
l-163 71l58 48l120 -101z" />
    <glyph glyph-name="Eacute" unicode="&#xc9;" horiz-adv-x="510" 
d="M132 434h293q18 0 32.5 -15.5t14.5 -33.5q0 -54 -114 -54h-44q-23 3 -35 4l-56 4v-247l48 4l78 4q123 0 123 -54q0 -19 -14 -33q-12 -14 -32 -14h-337q-30 0 -41 10q-10 12 -10 41v601q0 49 51 49h336q20 0 33 -16t13 -35q0 -18 -13 -31.5t-32 -13.5h-294v-170zM341 812
l-164 -71l-14 18l120 101z" />
    <glyph glyph-name="Ecircumflex" unicode="&#xca;" horiz-adv-x="503" 
d="M132 434h293q18 0 32.5 -15.5t14.5 -33.5q0 -54 -114 -54h-44q-23 3 -35 4l-56 4v-247l48 4l78 4q123 0 123 -54q0 -19 -14 -33q-12 -14 -32 -14h-337q-30 0 -41 10q-10 12 -10 41v601q0 49 51 49h336q20 0 33 -16t13 -35q0 -18 -13 -31.5t-32 -13.5h-294v-170zM380 741
h-46l-85 38l-79 -38h-51l130 96z" />
    <glyph glyph-name="Edieresis" unicode="&#xcb;" horiz-adv-x="503" 
d="M134 434h293q17 0 31.5 -15.5t14.5 -33.5q0 -54 -115 -54h-44q-22 3 -34 4l-56 4l1 -247l48 4l78 4q123 0 123 -54q0 -19 -14 -33q-12 -14 -32 -14h-337q-30 0 -41 10q-10 12 -10 41v597q0 53 51 53l336 1q20 0 33 -16t13 -36q0 -18 -13 -31.5t-32 -13.5h-294v-170z
M181 743q-17 0 -30.5 12.5t-13.5 30.5q0 17 12.5 31t30.5 14t32 -14t14 -32q0 -17 -14 -29.5t-31 -12.5zM328 743q-17 0 -30.5 12.5t-13.5 30.5t12.5 31.5t31.5 13.5q18 0 31.5 -13.5t13.5 -31.5t-13 -30.5t-32 -12.5z" />
    <glyph glyph-name="Igrave" unicode="&#xcc;" horiz-adv-x="265" 
d="M193 -1l-85 1q-27 0 -38 10q-10 12 -10 40v604q0 18 14 32t33 14t34 -14q15 -12 15 -31v-221l41 1q46 0 46 -52v-336q0 -27 -11.5 -37.5t-38.5 -10.5zM212 739l-164 71l58 48l120 -101z" />
    <glyph glyph-name="Iacute" unicode="&#xcd;" horiz-adv-x="265" 
d="M195 -1h-85q-27 0 -37.5 11.5t-10.5 39.5v604q0 18 14 32t33 14t34 -14q15 -12 15 -31v-221l40 1q27 0 36.5 -12.5t9.5 -39.5v-336q0 -27 -10.5 -37.5t-38.5 -10.5zM216 812l-163 -71l-15 18l121 101z" />
    <glyph glyph-name="Icircumflex" unicode="&#xce;" horiz-adv-x="268" 
d="M193 -1l-85 1q-27 0 -38 10q-10 12 -10 40v604q0 18 14 32t33 14t34 -14q15 -12 15 -31v-221l41 1q46 0 46 -52v-336q0 -27 -11.5 -37.5t-38.5 -10.5zM243 741h-45l-85 38l-79 -38h-52l131 96z" />
    <glyph glyph-name="Idieresis" unicode="&#xcf;" horiz-adv-x="265" 
d="M193 -1l-85 1q-27 0 -38 10q-10 12 -10 40v604q0 18 14 32t33 14t34 -14q15 -12 15 -31v-221l41 1q46 0 46 -52v-336q0 -27 -11.5 -37.5t-38.5 -10.5zM46 738q-17 0 -30 12t-13 32q0 17 12.5 30.5t31.5 13.5q18 0 31.5 -12.5t13.5 -31.5q0 -18 -14.5 -31t-31.5 -13z
M195 738q-17 0 -30.5 12.5t-13.5 31.5q0 17 12.5 30.5t30.5 13.5t31 -14q14 -12 14 -31q0 -17 -13.5 -30t-30.5 -13z" />
    <glyph glyph-name="Ntilde" unicode="&#xd1;" horiz-adv-x="528" 
d="M139 434l42 1q47 0 47 -52v-333q0 -28 -11 -39.5t-40 -11.5h-84q-29 0 -39 11t-10 40l-1 594q0 29 9.5 42.5t40.5 13.5h349q47 0 47 -50v-606q0 -18 -13.5 -31.5t-32.5 -13.5q-18 0 -34 12.5t-16 32.5v556h-254v-166zM234 836q22 0 49.5 -20.5t45.5 -25.5q23 11 32 33
l27 -9q-7 -27 -32 -48t-53 -21q-21 0 -51 23.5t-48 23.5q-17 0 -30 -28l-27 11q27 61 87 61z" />
    <glyph glyph-name="Ograve" unicode="&#xd2;" horiz-adv-x="519" 
d="M426 -1h-335q-29 0 -39 11t-10 40v597q0 53 50 53h334q54 0 54 -50v-606q0 -45 -54 -45zM134 600v-507h250v421h-41q-42 0 -42 44l1 21l1 21h-169zM319 741l-164 71l58 48l121 -101z" />
    <glyph glyph-name="Oacute" unicode="&#xd3;" horiz-adv-x="517" 
d="M426 -1h-335q-29 0 -39 11t-10 40v597q0 53 50 53h334q54 0 54 -50v-606q0 -45 -54 -45zM134 600v-507h250v421h-41q-42 0 -42 44l1 21l1 21h-169zM339 810l-164 -71l-14 18l120 101z" />
    <glyph glyph-name="Ocircumflex" unicode="&#xd4;" horiz-adv-x="517" 
d="M426 -1h-335q-29 0 -39 11t-10 40v597q0 53 50 53h334q54 0 54 -50v-606q0 -45 -54 -45zM134 600v-507h250v421h-41q-42 0 -42 44l1 21l1 21h-169zM386 741h-45l-85 38l-79 -38h-52l131 96z" />
    <glyph glyph-name="Otilde" unicode="&#xd5;" horiz-adv-x="524" 
d="M426 -1h-335q-29 0 -39 11t-10 40v597q0 53 50 53h334q54 0 54 -50v-606q0 -45 -54 -45zM134 600v-507h250v421h-41q-42 0 -42 44l1 21l1 21h-169zM216 836q25 0 52 -23q27 -20 44 -23q21 11 32 33l26 -8q-9 -26 -33.5 -48t-50.5 -22q-22 0 -51 23.5t-48 23.5
q-5 0 -17 -6l-12 -21l-29 10q31 61 87 61z" />
    <glyph glyph-name="Odieresis" unicode="&#xd6;" horiz-adv-x="522" 
d="M426 -1h-335q-29 0 -39 11t-10 40v597q0 53 50 53h334q54 0 54 -50v-606q0 -45 -54 -45zM134 600v-507h250v421h-41q-42 0 -42 44l1 21l1 21h-169zM175 743q-16 0 -29.5 12.5t-13.5 30.5q0 17 12 31t31 14q18 0 32 -14q14 -12 14 -31q0 -18 -14 -30.5t-32 -12.5zM324 743
q-17 0 -30.5 12.5t-13.5 30.5q0 17 12.5 31t30.5 14t32.5 -14t14.5 -32q0 -17 -14 -29.5t-32 -12.5z" />
    <glyph glyph-name="Oslash" unicode="&#xd8;" horiz-adv-x="522" 
d="M134 600v-507h250v421l-42 -1q-41 0 -41 45l1 21l1 21h-169zM351 788q33 0 44 -30q3 -14 3 -58l22 1q60 0 60 -51v-606q0 -54 -115 -54q-16 0 -36 1t-43 4l-49 4v-23q0 -67 -49 -67q-33 0 -43 31q-4 13 -4 59l-48 -1q-51 0 -51 52v597q0 53 50 53h211v23q0 65 48 65z" />
    <glyph glyph-name="Ugrave" unicode="&#xd9;" horiz-adv-x="522" 
d="M436 700q19 0 33 -14q15 -12 15 -31v-606q0 -50 -53 -50h-340q-30 0 -41 10q-10 12 -10 41v604q0 19 14 33t33 14t33.5 -14t14.5 -32v-221l42 1q27 0 37 -12t10 -40v-289h164l-1 561q0 17 15 32q16 13 34 13zM330 741l-164 71l58 48l121 -101z" />
    <glyph glyph-name="Uacute" unicode="&#xda;" horiz-adv-x="519" 
d="M436 700q19 0 33 -14q15 -12 15 -31v-606q0 -50 -53 -50h-340q-30 0 -41 10q-10 12 -10 41v604q0 19 14 33t33 14t33.5 -14t14.5 -32v-221l42 1q27 0 37 -12t10 -40v-289h164l-1 561q0 17 15 32q16 13 34 13zM352 812l-164 -71l-15 18l121 101z" />
    <glyph glyph-name="Ucircumflex" unicode="&#xdb;" horiz-adv-x="522" 
d="M436 700q19 0 33 -14q15 -12 15 -31v-606q0 -50 -53 -50h-340q-30 0 -41 10q-10 12 -10 41v604q0 19 14 33t33 14t33.5 -14t14.5 -32v-221l42 1q27 0 37 -12t10 -40v-289h164l-1 561q0 17 15 32q16 13 34 13zM376 741h-46l-85 38l-79 -38h-52l131 96z" />
    <glyph glyph-name="Udieresis" unicode="&#xdc;" horiz-adv-x="527" 
d="M436 700q19 0 33 -14q15 -12 15 -31v-606q0 -50 -53 -50h-340q-30 0 -41 10q-10 12 -10 41v604q0 19 14 33t33 14t33.5 -14t14.5 -32v-221l42 1q27 0 37 -12t10 -40v-289h164l-1 561q0 17 15 32q16 13 34 13zM166 741q-16 0 -29.5 12.5t-13.5 29.5t12 32t30 15t32 -14
q14 -12 14 -32q0 -18 -13 -30.5t-32 -12.5zM314 741q-15 0 -28.5 13t-13.5 29q0 17 12 32t30 15t31.5 -13.5t13.5 -32.5q0 -18 -13 -30.5t-32 -12.5z" />
    <glyph glyph-name="Yacute" unicode="&#xdd;" horiz-adv-x="615" 
d="M341 -1h-81q-29 0 -40 11t-11 40v290l-43 -3l-48 -3q-76 0 -76 56l-1 265q0 18 14 32q16 13 34 13q55 0 55 -122q0 -16 -1 -37.5t-4 -47.5l-4 -59h338v220q0 20 15 33.5t34 13.5t33.5 -14t14.5 -32v-266q0 -56 -82 -56l-52 3l-43 4v-290q0 -51 -52 -51zM356 813l-163 -70
l-15 17l121 102z" />
    <glyph glyph-name="germandbls" unicode="&#xdf;" horiz-adv-x="526" 
d="M89 698h267q27 0 38 -11q11 -9 11 -37v-216h32q29 0 40.5 -11t11.5 -40v-338q0 -46 -51 -46h-139q-20 0 -32.5 14.5t-12.5 34.5q0 48 76 48l35 -2l30 -1l-1 246l-40 -3l-41 -2q-85 0 -85 54q0 29 26 41q9 3 19 4t33 1v166h-174v-376l40 1q51 0 51 -51v-124
q0 -28 -12.5 -39.5t-40.5 -11.5h-81q-30 0 -41 10q-10 12 -10 41v597q0 29 12 40t39 11z" />
    <glyph glyph-name="agrave" unicode="&#xe0;" horiz-adv-x="442" 
d="M320 347v131h-200v-131h200zM150 -1h-66q-40 0 -40 40l-1 479q0 42 41 42l271 1q23 0 33 -9t10 -35v-478q0 -15 -9.5 -28t-25.5 -14q-15 0 -29 11q-11 12 -13 28v221h-131l1 -217q0 -41 -41 -41zM299 602l-164 71l58 49l120 -101z" />
    <glyph glyph-name="aacute" unicode="&#xe1;" horiz-adv-x="442" 
d="M320 347v131h-200v-131h200zM150 -1h-66q-40 0 -40 40l-1 479q0 42 41 42l271 1q23 0 33 -9t10 -35v-478q0 -15 -9.5 -28t-25.5 -14q-15 0 -29 11q-11 12 -13 28v221h-131l1 -217q0 -41 -41 -41zM312 672l-164 -72l-15 19l121 101z" />
    <glyph glyph-name="acircumflex" unicode="&#xe2;" horiz-adv-x="438" 
d="M320 347v131h-200v-131h200zM150 -1h-66q-40 0 -40 40l-1 479q0 42 41 42l271 1q23 0 33 -9t10 -35v-478q0 -15 -9.5 -28t-25.5 -14q-15 0 -29 11q-11 12 -13 28v221h-131l1 -217q0 -41 -41 -41zM342 601l-45 -1l-86 38l-78 -37h-52l130 96z" />
    <glyph glyph-name="atilde" unicode="&#xe3;" horiz-adv-x="440" 
d="M320 347v131h-200v-131h200zM150 -1h-66q-40 0 -40 40l-1 479q0 42 41 42l271 1q23 0 33 -9t10 -35v-478q0 -15 -9.5 -28t-25.5 -14q-15 0 -29 11q-11 12 -13 28v221h-131l1 -217q0 -41 -41 -41zM189 697q22 0 50.5 -22t44.5 -25l20 13q8 6 12 20l28 -10
q-9 -25 -33.5 -47t-50.5 -22q-19 0 -50 24t-50 24t-30 -27l-28 11q31 61 87 61z" />
    <glyph glyph-name="adieresis" unicode="&#xe4;" horiz-adv-x="438" 
d="M320 347v131h-200v-131h200zM150 -1h-66q-40 0 -40 40l-1 479q0 42 41 42l271 1q23 0 33 -9t10 -35v-478q0 -15 -9.5 -28t-25.5 -14q-15 0 -29 11q-11 12 -13 28v221h-131l1 -217q0 -41 -41 -41zM143 601q-17 0 -30.5 13t-13.5 31q0 17 12.5 31t31.5 14q18 0 31.5 -14
t13.5 -32q0 -17 -14.5 -30t-30.5 -13zM293 601q-17 0 -30.5 13t-13.5 31q0 17 12.5 31t30.5 14t32 -14q14 -12 14 -31q0 -18 -13.5 -31t-31.5 -13z" />
    <glyph glyph-name="aring" unicode="&#xe5;" horiz-adv-x="438" 
d="M320 347v131h-200v-131h200zM150 -1h-66q-40 0 -40 40l-1 479q0 42 41 42l271 1q23 0 33 -9t10 -35v-478q0 -15 -9.5 -28t-25.5 -14q-15 0 -29 11q-11 12 -13 28v221h-131l1 -217q0 -41 -41 -41zM303 680q0 -30 -24 -56q-25 -23 -56 -23q-33 0 -56 23t-23 55
q0 34 23.5 57.5t55.5 23.5q30 0 55 -24t25 -56zM176 681q0 -19 14 -33q16 -13 33 -13q18 0 31.5 14.5t13.5 31.5q0 18 -14 32q-12 14 -31 14t-33 -14q-14 -12 -14 -32z" />
    <glyph glyph-name="ae" unicode="&#xe6;" horiz-adv-x="646" 
d="M273 347v130h-156v-130h156zM189 257l-1 -216q0 -40 -40 -40h-64q-40 0 -40 40v477q0 20 6.5 30.5t28.5 10.5h492q35 0 35 -38q0 -45 -115 -45q-37 0 -81 4l-55 4v-136h216q14 0 23.5 -11t11.5 -28q0 -43 -89 -43l-56 3l-36 3l1 -194l35 3l54 3q91 0 91 -45
q0 -15 -9 -24.5t-26 -11.5l-251 -1q-45 0 -45 34v221h-86z" />
    <glyph glyph-name="ccedilla" unicode="&#xe7;" horiz-adv-x="440" 
d="M258 -142q-28 0 -37 24q-2 7 -3 17t-1 32h-26l-28 3l-12 11l-2 53l-26 -2l-25 -2q-51 0 -51 42v479q0 40 40 40h274q42 0 42 -38l1 -77q0 -13 -12 -25q-11 -8 -27 -10q-26 0 -35 24q-2 8 -3 17t-1 29h-202v-129h30q40 0 40 -40v-232h132v20q0 52 37 52q16 0 27.5 -9.5
t11.5 -25.5v-76q0 -37 -54 -37l-28 2l-23 1l2 -34l3 -36q0 -73 -44 -73z" />
    <glyph glyph-name="egrave" unicode="&#xe8;" horiz-adv-x="426" 
d="M117 347l234 -1q14 0 24 -11.5t12 -27.5q0 -43 -90 -43l-63 3l-45 4v-197l38 3l61 3q99 0 99 -45q0 -14 -10 -24t-26 -12h-272q-22 0 -30 9q-7 11 -7 31l-1 482q0 39 39 39h271q14 0 24 -11.5t12 -27.5q0 -16 -11 -27q-9 -12 -25 -12h-234v-135zM278 604l-164 71l58 49
l121 -101z" />
    <glyph glyph-name="eacute" unicode="&#xe9;" horiz-adv-x="431" 
d="M117 347l234 -1q14 0 24 -11.5t12 -27.5q0 -43 -90 -43l-63 3l-45 4v-197l38 3l61 3q99 0 99 -45q0 -14 -10 -24t-26 -12h-272q-22 0 -30 9q-7 11 -7 31l-1 482q0 39 39 39h271q14 0 24 -11.5t12 -27.5q0 -16 -11 -27q-9 -12 -25 -12h-234v-135zM304 672l-165 -72l-14 19
l120 101z" />
    <glyph glyph-name="ecircumflex" unicode="&#xea;" horiz-adv-x="426" 
d="M117 347l234 -1q14 0 24 -11.5t12 -27.5q0 -43 -90 -43l-63 3l-45 4v-197l38 3l61 3q99 0 99 -45q0 -14 -10 -24t-26 -12h-272q-22 0 -30 9q-7 11 -7 31l-1 482q0 39 39 39h271q14 0 24 -11.5t12 -27.5q0 -16 -11 -27q-9 -12 -25 -12h-234v-135zM328 600h-46l-84 36
l-78 -36h-53l131 95z" />
    <glyph glyph-name="edieresis" unicode="&#xeb;" horiz-adv-x="430" 
d="M117 347l234 -1q14 0 24 -11.5t12 -27.5q0 -43 -90 -43l-63 3l-45 4v-197l38 3l61 3q99 0 99 -45q0 -14 -10 -24t-26 -12h-272q-22 0 -30 9q-7 11 -7 31l-1 482q0 39 39 39h271q14 0 24 -11.5t12 -27.5q0 -16 -11 -27q-9 -12 -25 -12h-234v-135zM140 601q-17 0 -30.5 13
t-13.5 31q0 17 12.5 31t30.5 14t32 -14q14 -12 14 -31q0 -18 -13.5 -31t-31.5 -13zM288 601q-17 0 -30.5 13t-13.5 31q0 17 12.5 31t30.5 14t32 -14t14 -32q0 -17 -14.5 -30t-30.5 -13z" />
    <glyph glyph-name="igrave" unicode="&#xec;" horiz-adv-x="274" 
d="M167 -1h-65q-40 0 -40 40v486q0 14 10 23.5t26 11.5q16 0 27.5 -9.5t11.5 -24.5v-179h32q40 0 40 -40v-268q0 -21 -9 -32q-10 -8 -33 -8zM188 602l-164 71l58 49l120 -101z" />
    <glyph glyph-name="iacute" unicode="&#xed;" horiz-adv-x="270" 
d="M167 -1h-65q-40 0 -40 40v486q0 14 10 23.5t26 11.5q16 0 27.5 -9.5t11.5 -24.5v-179h32q40 0 40 -40v-268q0 -21 -9 -32q-10 -8 -33 -8zM215 673l-164 -71l-15 19l121 101z" />
    <glyph glyph-name="icircumflex" unicode="&#xee;" horiz-adv-x="274" 
d="M167 -1h-65q-40 0 -40 40v486q0 14 10 23.5t26 11.5q16 0 27.5 -9.5t11.5 -24.5v-179h32q40 0 40 -40v-268q0 -21 -9 -32q-10 -8 -33 -8zM255 601l-46 -1l-84 38l-79 -37h-52l131 96z" />
    <glyph glyph-name="idieresis" unicode="&#xef;" horiz-adv-x="278" 
d="M167 -1h-65q-40 0 -40 40v486q0 14 10 23.5t26 11.5q16 0 27.5 -9.5t11.5 -24.5v-179h32q40 0 40 -40v-268q0 -21 -9 -32q-10 -8 -33 -8zM56 601q-17 0 -30 13t-13 30t12 31.5t30 14.5t32 -14q14 -12 14 -31q0 -18 -13.5 -31t-31.5 -13zM204 600q-17 0 -29.5 12.5
t-12.5 30.5q0 17 12 31.5t30 14.5t31.5 -13.5t13.5 -31.5t-13.5 -31t-31.5 -13z" />
    <glyph glyph-name="eth" unicode="&#xf0;" horiz-adv-x="431" 
d="M120 112q0 -103 72 -103q54 0 83 70q22 53 22 117q0 43 -15 72q-20 36 -58 36q-56 0 -83 -72q-21 -54 -21 -120zM322 380q0 145 -54 145q-16 -1 -44 -31q-30 -30 -49 -30q-33 0 -33 28q0 30 29.5 46.5t60.5 16.5q80 0 119 -82q31 -62 31 -153q0 -113 -42 -209
q-56 -123 -154 -123q-64 0 -101 52q-32 45 -32 113q0 35 11 65t33 57q48 58 113 58q75 0 102 -79q10 44 10 126z" />
    <glyph glyph-name="ntilde" unicode="&#xf1;" horiz-adv-x="438" 
d="M119 347h34q37 0 37 -40v-268q0 -40 -42 -40l-66 1q-23 0 -31 8q-7 11 -7 31v478q0 43 38 43l276 1q40 0 40 -42v-483q0 -14 -9.5 -25t-24.5 -12q-15 0 -28 11t-13 26v442h-204v-131zM174 695q21 0 49 -21.5t46 -24.5q23 12 33 32l26 -9q-9 -26 -32.5 -48t-51.5 -22
q-18 0 -49 24t-50 24q-15 0 -30 -27l-27 12q29 60 86 60z" />
    <glyph glyph-name="ograve" unicode="&#xf2;" horiz-adv-x="430" 
d="M346 -1h-266q-26 0 -34 9q-6 9 -6 31v479q0 42 39 42l267 1q43 0 43 -42v-484q0 -36 -43 -36zM113 478v-404h200v338l-12 -1q-6 -1 -12 -1h-9q-16 0 -23 4q-10 7 -10 29l1 35h-135zM288 602l-163 71l57 49l121 -101z" />
    <glyph glyph-name="oacute" unicode="&#xf3;" horiz-adv-x="433" 
d="M346 -1h-266q-26 0 -34 9q-6 9 -6 31v479q0 42 39 42l267 1q43 0 43 -42v-484q0 -36 -43 -36zM113 478v-404h200v338l-12 -1q-6 -1 -12 -1h-9q-16 0 -23 4q-10 7 -10 29l1 35h-135zM300 675l-164 -71l-14 19l120 101z" />
    <glyph glyph-name="ocircumflex" unicode="&#xf4;" horiz-adv-x="430" 
d="M346 -1h-266q-26 0 -34 9q-6 9 -6 31v479q0 42 39 42l267 1q43 0 43 -42v-484q0 -36 -43 -36zM113 478v-404h200v338l-12 -1q-6 -1 -12 -1h-9q-16 0 -23 4q-10 7 -10 29l1 35h-135zM354 601l-45 -1l-86 38l-78 -37h-53l131 96z" />
    <glyph glyph-name="otilde" unicode="&#xf5;" horiz-adv-x="430" 
d="M346 -1h-266q-26 0 -34 9q-6 9 -6 31v479q0 42 39 42l267 1q43 0 43 -42v-484q0 -36 -43 -36zM113 478v-404h200v338l-12 -1q-6 -1 -12 -1h-9q-16 0 -23 4q-10 7 -10 29l1 35h-135zM175 695q23 0 50.5 -21.5t45.5 -24.5q22 12 32 32l27 -8q-9 -28 -33 -49.5t-51 -21.5
q-18 0 -49 24t-50 24q-18 0 -30 -27l-27 12q29 60 85 60z" />
    <glyph glyph-name="odieresis" unicode="&#xf6;" horiz-adv-x="430" 
d="M346 -1h-266q-26 0 -34 9q-6 9 -6 31v479q0 42 39 42l267 1q43 0 43 -42v-484q0 -36 -43 -36zM113 478v-404h200v338l-12 -1q-6 -1 -12 -1h-9q-16 0 -23 4q-10 7 -10 29l1 35h-135zM129 601q-17 0 -29.5 12.5t-12.5 30.5q0 17 12 31.5t30 14.5t31.5 -13.5t13.5 -31.5
t-13.5 -31t-31.5 -13zM278 600q-17 0 -30 13t-13 30t12 31.5t30 14.5t32 -14q14 -12 14 -31q0 -18 -13.5 -31t-31.5 -13z" />
    <glyph glyph-name="divide" unicode="&#xf7;" horiz-adv-x="479" 
d="M290 88q0 -19 -15 -35t-35 -16q-21 0 -35.5 15.5t-14.5 35.5q0 18 15.5 34.5t34.5 16.5q21 0 35.5 -14.5t14.5 -36.5zM37 176v62h406v-62h-406zM290 324q0 -19 -15 -35t-35 -16q-22 0 -36 15t-14 36q0 18 15.5 34.5t34.5 16.5q20 0 35 -15t15 -36z" />
    <glyph glyph-name="oslash" unicode="&#xf8;" horiz-adv-x="430" 
d="M113 478v-404h200v338l-12 -1q-6 -1 -12 -1h-9q-16 0 -23 4q-10 7 -10 29l1 35h-135zM285 647q30 0 37 -31l1 -56h16q50 0 50 -41l1 -485q0 -42 -96 -42h-37q-19 3 -28 4l-40 3v-33q0 -54 -39 -54q-40 0 -40 56l2 31h-34q-38 0 -38 40l1 479q0 50 79 50l64 -4l62 -4
l-1 32q0 55 40 55z" />
    <glyph glyph-name="ugrave" unicode="&#xf9;" horiz-adv-x="442" 
d="M358 560q13 0 25.5 -9.5t12.5 -24.5v-487q0 -40 -42 -40h-275q-22 0 -30 9q-7 11 -7 31v486q0 15 10 24.5t26 10.5q16 0 27.5 -9.5t11.5 -24.5v-179h32q40 0 40 -40v-231h131v449q0 14 11 23.5t27 11.5zM292 603l-164 71l58 49l121 -101z" />
    <glyph glyph-name="uacute" unicode="&#xfa;" horiz-adv-x="442" 
d="M358 560q13 0 25.5 -9.5t12.5 -24.5v-487q0 -40 -42 -40h-275q-22 0 -30 9q-7 11 -7 31v486q0 15 10 24.5t26 10.5q16 0 27.5 -9.5t11.5 -24.5v-179h32q40 0 40 -40v-231h131v449q0 14 11 23.5t27 11.5zM304 674l-165 -71l-14 19l120 101z" />
    <glyph glyph-name="ucircumflex" unicode="&#xfb;" horiz-adv-x="438" 
d="M358 560q13 0 25.5 -9.5t12.5 -24.5v-487q0 -40 -42 -40h-275q-22 0 -30 9q-7 11 -7 31v486q0 15 10 24.5t26 10.5q16 0 27.5 -9.5t11.5 -24.5v-179h32q40 0 40 -40v-231h131v449q0 14 11 23.5t27 11.5zM344 599h-46l-85 37l-78 -37h-52l130 95z" />
    <glyph glyph-name="udieresis" unicode="&#xfc;" horiz-adv-x="438" 
d="M358 560q13 0 25.5 -9.5t12.5 -24.5v-487q0 -40 -42 -40h-275q-22 0 -30 9q-7 11 -7 31v486q0 15 10 24.5t26 10.5q16 0 27.5 -9.5t11.5 -24.5v-179h32q40 0 40 -40v-231h131v449q0 14 11 23.5t27 11.5zM141 601q-16 0 -29.5 12.5t-13.5 30.5q0 17 12.5 31t30.5 14
t31.5 -14t13.5 -31q0 -18 -13 -30.5t-32 -12.5zM290 601q-17 0 -30.5 12.5t-13.5 30.5q0 17 12.5 31t30.5 14t32 -14t14 -32q0 -17 -14 -29.5t-31 -12.5z" />
    <glyph glyph-name="yacute" unicode="&#xfd;" horiz-adv-x="488" 
d="M270 -1h-67q-40 0 -40 40v233l-36 -3l-37 -2q-62 0 -62 43v215q0 15 11 24.5t27 11.5q46 0 46 -98v-28q-3 -25 -4 -39l-3 -49h270l-1 178q0 13 11.5 23t26.5 12q16 0 27.5 -9.5t11.5 -24.5v-216q0 -43 -66 -43l-42 2l-33 3v-233q0 -40 -40 -40zM304 672l-165 -72l-14 19
l120 101z" />
    <glyph glyph-name="ydieresis" unicode="&#xff;" horiz-adv-x="505" 
d="M270 -1h-67q-40 0 -40 40v233l-36 -3l-37 -2q-62 0 -62 43v215q0 15 11 24.5t27 11.5q46 0 46 -98v-28q-3 -25 -4 -39l-3 -49h270l-1 178q0 13 11.5 23t26.5 12q16 0 27.5 -9.5t11.5 -24.5v-216q0 -43 -66 -43l-42 2l-33 3v-233q0 -40 -40 -40zM170 606q-17 0 -30 13
t-13 31t12.5 31.5t31.5 13.5q18 0 31 -13.5t13 -31.5t-14.5 -31t-30.5 -13zM320 606q-17 0 -30.5 13t-13.5 31q0 17 12.5 31t30.5 14t32 -14q14 -12 14 -31q0 -18 -13.5 -31t-31.5 -13z" />
    <glyph glyph-name="dotlessi" unicode="&#x131;" horiz-adv-x="218" 
d="M167 -1h-65q-40 0 -40 40v486q0 14 10 23.5t26 11.5q16 0 27.5 -9.5t11.5 -24.5v-179h32q40 0 40 -40v-268q0 -21 -9 -32q-10 -8 -33 -8z" />
    <glyph glyph-name="ring" unicode="&#x2da;" horiz-adv-x="363" 
d="M347 581q0 -30 -23.5 -54.5t-55.5 -24.5q-34 0 -57 23t-23 56t23.5 56.5t56.5 23.5q31 0 55 -24t24 -56zM221 582q0 -18 15 -32t32 -14q18 0 31 15t13 32q0 18 -13 31t-31 13q-19 0 -33 -14q-14 -12 -14 -31z" />
    <glyph glyph-name="mu1" unicode="&#x112;" horiz-adv-x="612" 
d="M240 49q42 0 83 32t41 73v343h82v-386q0 -30 16 -55.5t44 -25.5q30 0 51 70h18q-20 -119 -126 -119q-32 0 -60 34q-24 30 -27 63q-95 -95 -151 -95q-66 0 -113 57v-31q0 -29 16.5 -83t16.5 -81q0 -23 -13 -44.5t-36 -21.5q-21 0 -35 19.5t-14 40.5q0 28 16 79
q4 13 10 37.5t6 42.5v499h86v-343q0 -41 24.5 -73t64.5 -32z" />
    <glyph glyph-name="c275" unicode="&#x113;" horiz-adv-x="347" 
d="M303 297q0 -19 -14 -34t-33 -15h-169q-19 0 -33 15t-14 34q0 17 15 32q16 13 34 13h165q19 0 34 -14q15 -12 15 -31z" />
    <glyph glyph-name="uni20AC" unicode="&#x20ac;" 
d="M708 549q-90 110 -240 110q-92 0 -162.5 -52.5t-97.5 -135.5h464l-35 -75h-445l-2 -30l2 -26h419l-36 -75h-366q28 -87 100 -138.5t169 -51.5q141 0 234 112v-105q-103 -82 -239 -82q-127 0 -223 71.5t-126 193.5h-122l36 75h72l-1 27l1 29h-108l36 75h86q30 121 127 192
t227 71q75 0 147.5 -30t117.5 -82z" />
    <glyph glyph-name="c277" unicode="&#x115;" 
d="M708 549q-90 110 -240 110q-92 0 -162.5 -52.5t-97.5 -135.5h464l-35 -75h-445l-2 -30l2 -26h419l-36 -75h-366q28 -87 100 -138.5t169 -51.5q141 0 234 112v-105q-103 -82 -239 -82q-127 0 -223 71.5t-126 193.5h-122l36 75h72l-1 27l1 29h-108l36 75h86q30 121 127 192
t227 71q75 0 147.5 -30t117.5 -82z" />
    <glyph glyph-name="orthogonal" unicode="&#x116;" 
d="M401 200h-52q-30 0 -40.5 11.5t-10.5 40.5v224q0 30 10.5 41t40.5 11h52q32 0 43 -9.5t11 -42.5v-223q0 -30 -12.5 -41.5t-41.5 -11.5zM605 200l-52 -1q-31 0 -42 12t-11 41l1 224q0 30 11 41t41 11h55q28 0 38.5 -12t10.5 -40v-224q0 -30 -10 -39.5t-42 -12.5zM748 200
q-39 0 -39 47v234q0 16 10.5 31.5t27.5 15.5q40 0 40 -47v-234q0 -17 -11 -32t-28 -15z" />
    </font>
</defs>
</svg>
